<svg width="2025" height="1970" viewBox="0 0 2025 1970" fill="none" xmlns="http://www.w3.org/2000/svg">
<path d="M1863.14 200.821H1247.09V1688.58H1863.14V200.821Z" fill="#2C3A41"/>
<path d="M1863.14 200.821H1247.09V1688.58H1863.14V200.821Z" stroke="#263238" stroke-linecap="round" stroke-linejoin="round"/>
<path d="M1863.14 200.821V146.74" stroke="#263238" stroke-linecap="round" stroke-linejoin="round"/>
<path d="M1247.09 200.821V145.651" stroke="#263238" stroke-linecap="round" stroke-linejoin="round"/>
<path d="M1846.34 1243.34H1438.46V1880.34H1846.34V1243.34Z" fill="#545D62" stroke="#263238" stroke-linecap="round" stroke-linejoin="round"/>
<path d="M1846.38 1243.34H1590.73V1880.34H1846.38V1243.34Z" fill="#263238" stroke="#263238" stroke-linecap="round" stroke-linejoin="round"/>
<path d="M1826.51 1394.34C1835.5 1338.7 1797.69 1286.31 1742.05 1277.32C1686.41 1268.33 1634.02 1306.14 1625.02 1361.78C1616.03 1417.42 1653.85 1469.81 1709.49 1478.81C1765.13 1487.8 1817.52 1449.98 1826.51 1394.34Z" fill="#FF86D6"/>
<path d="M1745.86 1407.39C1760.12 1393.12 1760.12 1369.99 1745.86 1355.73C1731.59 1341.46 1708.46 1341.46 1694.19 1355.73C1679.92 1369.99 1679.92 1393.12 1694.19 1407.39C1708.46 1421.66 1731.59 1421.66 1745.86 1407.39Z" fill="#263238"/>
<path d="M1758.5 1858.93C1810.55 1837.72 1835.55 1778.34 1814.34 1726.29C1793.13 1674.25 1733.75 1649.25 1681.7 1670.46C1629.65 1691.66 1604.65 1751.05 1625.86 1803.09C1647.07 1855.14 1706.45 1880.14 1758.5 1858.93Z" fill="#FF86D6"/>
<path d="M1755.53 1773.21C1760.18 1753.58 1748.04 1733.89 1728.41 1729.24C1708.77 1724.59 1689.09 1736.73 1684.43 1756.36C1679.78 1776 1691.93 1795.68 1711.56 1800.34C1731.19 1804.99 1750.88 1792.84 1755.53 1773.21Z" fill="#263238"/>
<path d="M1739.44 1613.71C1765.11 1602.98 1777.23 1573.48 1766.51 1547.8C1755.78 1522.13 1726.28 1510.01 1700.6 1520.73C1674.93 1531.46 1662.81 1560.96 1673.53 1586.64C1684.26 1612.31 1713.76 1624.43 1739.44 1613.71Z" fill="#FF86D6"/>
<path d="M1738.09 1567.3C1738.09 1570.89 1737.02 1574.39 1735.03 1577.37C1733.04 1580.35 1730.21 1582.67 1726.89 1584.04C1723.58 1585.41 1719.94 1585.77 1716.42 1585.07C1712.91 1584.36 1709.68 1582.63 1707.15 1580.1C1704.62 1577.56 1702.89 1574.33 1702.2 1570.81C1701.51 1567.29 1701.87 1563.65 1703.25 1560.34C1704.63 1557.03 1706.96 1554.21 1709.94 1552.22C1712.92 1550.23 1716.43 1549.18 1720.02 1549.19C1722.39 1549.19 1724.75 1549.66 1726.94 1550.57C1729.14 1551.48 1731.13 1552.81 1732.81 1554.5C1734.49 1556.18 1735.82 1558.18 1736.72 1560.37C1737.63 1562.57 1738.09 1564.93 1738.09 1567.3Z" fill="#263238"/>
<path d="M526.877 1243.34H119.003V1880.34H526.877V1243.34Z" fill="#545D62" stroke="#263238" stroke-linecap="round" stroke-linejoin="round"/>
<path d="M526.877 1243.34H271.232V1880.34H526.877V1243.34Z" fill="#263238" stroke="#263238" stroke-linecap="round" stroke-linejoin="round"/>
<path d="M475.611 1450.31C513.501 1408.8 510.567 1344.44 469.058 1306.55C427.549 1268.66 363.184 1271.59 325.295 1313.1C287.405 1354.61 290.339 1418.98 331.848 1456.86C373.357 1494.75 437.722 1491.82 475.611 1450.31Z" fill="#FF86D6"/>
<path d="M427.508 1406.21C441.137 1391.33 440.124 1368.22 425.245 1354.59C410.367 1340.96 387.258 1341.98 373.629 1356.85C360.001 1371.73 361.014 1394.84 375.892 1408.47C390.77 1422.1 413.88 1421.09 427.508 1406.21Z" fill="#263238"/>
<path d="M499.323 1789.32C512.758 1734.75 479.409 1679.62 424.837 1666.18C370.265 1652.75 315.135 1686.1 301.701 1740.67C288.266 1795.24 321.615 1850.37 376.187 1863.8C430.759 1877.24 485.889 1843.89 499.323 1789.32Z" fill="#FF86D6"/>
<path d="M436.017 1773.49C440.829 1753.89 428.847 1734.11 409.252 1729.29C389.658 1724.48 369.872 1736.46 365.06 1756.06C360.247 1775.65 372.229 1795.44 391.824 1800.25C411.418 1805.06 431.204 1793.08 436.017 1773.49Z" fill="#263238"/>
<path d="M436.16 1602.95C455.835 1583.28 455.835 1551.38 436.16 1531.7C416.486 1512.03 384.587 1512.03 364.912 1531.7C345.238 1551.38 345.238 1583.28 364.912 1602.95C384.587 1622.63 416.486 1622.63 436.16 1602.95Z" fill="#FF86D6"/>
<path d="M418.627 1567.3C418.627 1570.89 417.565 1574.39 415.574 1577.37C413.584 1580.35 410.755 1582.67 407.445 1584.04C404.135 1585.41 400.493 1585.77 396.979 1585.07C393.465 1584.37 390.238 1582.64 387.704 1580.11C385.171 1577.58 383.446 1574.35 382.747 1570.84C382.048 1567.32 382.407 1563.68 383.778 1560.37C385.149 1557.06 387.471 1554.23 390.449 1552.24C393.428 1550.25 396.93 1549.19 400.513 1549.19C402.893 1549.18 405.252 1549.65 407.452 1550.56C409.652 1551.46 411.651 1552.8 413.335 1554.48C415.018 1556.16 416.352 1558.16 417.26 1560.36C418.168 1562.56 418.633 1564.92 418.627 1567.3Z" fill="#263238"/>
<path d="M526.877 610.519H119.003V1247.52H526.877V610.519Z" fill="#545D62" stroke="#263238" stroke-linecap="round" stroke-linejoin="round"/>
<path d="M526.877 610.519H271.232V1247.52H526.877V610.519Z" fill="#263238" stroke="#263238" stroke-linecap="round" stroke-linejoin="round"/>
<path d="M499.345 773.183C512.78 718.611 479.431 663.481 424.859 650.046C370.287 636.612 315.157 669.96 301.723 724.532C288.288 779.104 321.637 834.235 376.209 847.669C430.781 861.103 485.911 827.755 499.345 773.183Z" fill="#FF86D6"/>
<path d="M435.998 757.431C440.811 737.836 428.828 718.051 409.234 713.238C389.64 708.425 369.854 720.408 365.041 740.002C360.228 759.596 372.211 779.382 391.805 784.195C411.399 789.008 431.185 777.025 435.998 757.431Z" fill="#263238"/>
<path d="M400.513 1233.8C456.714 1233.8 502.274 1188.24 502.274 1132.04C502.274 1075.84 456.714 1030.28 400.513 1030.28C344.312 1030.28 298.751 1075.84 298.751 1132.04C298.751 1188.24 344.312 1233.8 400.513 1233.8Z" fill="#FF86D6"/>
<path d="M435.995 1140.68C440.808 1121.09 428.825 1101.3 409.231 1096.49C389.637 1091.68 369.851 1103.66 365.038 1123.25C360.225 1142.85 372.208 1162.63 391.802 1167.45C411.397 1172.26 431.182 1160.28 435.995 1140.68Z" fill="#263238"/>
<path d="M449.559 945.951C455.899 918.859 439.075 891.757 411.983 885.418C384.891 879.078 357.789 895.902 351.449 922.994C345.11 950.086 361.933 977.188 389.026 983.527C416.118 989.867 443.22 973.043 449.559 945.951Z" fill="#FF86D6"/>
<path d="M418.627 934.483C418.627 938.066 417.565 941.568 415.574 944.547C413.584 947.526 410.755 949.848 407.445 951.219C404.135 952.59 400.493 952.948 396.979 952.249C393.465 951.55 390.238 949.825 387.704 947.292C385.171 944.759 383.446 941.531 382.747 938.017C382.048 934.503 382.407 930.861 383.778 927.551C385.149 924.241 387.471 921.412 390.449 919.422C393.428 917.431 396.93 916.369 400.513 916.369C405.317 916.369 409.925 918.278 413.322 921.675C416.719 925.072 418.627 929.679 418.627 934.483Z" fill="#263238"/>
<path d="M1013.65 694.296C1013.65 694.296 949.38 724.776 938.843 737.535C928.305 750.293 937.667 776.114 937.667 798.496C937.667 820.877 927.173 886.149 927.173 886.149L834.817 957.256C826.566 960.435 817.898 962.4 809.083 963.091C798.589 963.091 788.051 988.825 788.051 988.825C794.975 990.383 802.159 990.383 809.083 988.825C823.147 986.474 827.807 978.287 827.807 978.287L835.993 972.452C835.993 972.452 824.28 986.473 831.29 986.473C838.301 986.473 852.365 965.442 852.365 965.442L940.976 922.203C947.052 919.168 951.728 913.915 954.04 907.529L973.765 853.23L967.93 949.026C967.93 949.026 882.628 1053.05 865.08 1099.82C847.532 1146.58 832.335 1203.84 832.335 1220.22C832.335 1236.59 833.511 1381.33 833.511 1381.33L867.431 1382.5L889.639 1203.67C889.639 1203.67 990.268 1072.99 997.235 1068.29C1002.19 1065.44 1007.92 1064.22 1013.61 1064.81C1013.61 1064.81 1040.47 1193.35 1046.35 1203.89C1052.23 1214.42 1125.82 1375.71 1125.82 1375.71H1151.51L1117.63 1192.22L1118.81 935.048L1138.66 802.981C1138.66 802.981 1148.03 717.635 1130.48 702.438C1112.93 687.242 1067.38 691.944 1053.36 693.12C1039.34 694.296 1013.65 694.296 1013.65 694.296Z" fill="#808080" stroke="#263238" stroke-linecap="round" stroke-linejoin="round"/>
<path d="M1118.59 964.266L1118.85 935.048L1138.71 802.981C1138.71 802.981 1148.07 717.635 1130.52 702.438C1112.97 687.242 1067.43 691.944 1053.41 693.12C1039.39 694.296 1013.65 694.296 1013.65 694.296C1013.65 694.296 949.38 724.776 938.843 737.535C928.305 750.293 937.667 776.114 937.667 798.496C937.667 803.677 937.101 811.341 936.187 819.919L975.071 827.713L973.895 853.404L968.061 949.2C968.061 949.2 964.49 953.555 958.742 960.783C971.457 967.271 997.627 976.894 1040.52 976.11C1066.97 975.823 1093.25 971.836 1118.59 964.266Z" fill="#263238" stroke="#263238" stroke-linecap="round" stroke-linejoin="round"/>
<path d="M1014.65 715.328C1014.65 715.328 1021.66 731.656 1032.07 731.656C1042.48 731.656 1063.64 703.614 1063.64 693.12L1046.22 641.695L1014.65 715.328Z" fill="white" stroke="#263238" stroke-linecap="round" stroke-linejoin="round"/>
<path d="M949.337 641.695C949.337 641.695 979.817 701.306 990.224 710.625C1000.63 719.943 1011.26 724.646 1026.45 710.625C1041.65 696.604 1043.87 666.21 1043.87 666.21C1043.87 666.21 1056.72 649.881 1056.72 632.333C1056.72 614.785 1047.35 607.775 1042.69 601.853C1038.04 595.931 949.337 597.281 949.337 641.695Z" fill="white" stroke="#263238" stroke-linecap="round" stroke-linejoin="round"/>
<path d="M986.958 667.125C986.958 667.125 989.484 683.28 994.056 684.542C998.628 685.805 1003.2 679.927 1004.25 677.053" stroke="#263238" stroke-linecap="round" stroke-linejoin="round"/>
<path d="M993.882 693.643C993.882 693.643 1014.96 697.257 1014.96 677.706" stroke="#263238" stroke-linecap="round" stroke-linejoin="round"/>
<path d="M996.93 659.069L999.238 665.427C1001.4 665.844 1003.64 665.631 1005.69 664.813C1007.73 663.994 1009.5 662.605 1010.78 660.811" stroke="#263238" stroke-linecap="round" stroke-linejoin="round"/>
<path d="M963.576 657.154C965.314 655.495 967.593 654.52 969.993 654.408C972.393 654.296 974.753 655.055 976.639 656.544" stroke="#263238" stroke-linecap="round" stroke-linejoin="round"/>
<path d="M994.187 651.144C994.187 651.144 997.67 644.264 1010.91 644.83" stroke="#263238" stroke-linecap="round" stroke-linejoin="round"/>
<path d="M968.931 666.036L971.239 672.35C973.396 672.786 975.634 672.582 977.677 671.762C979.72 670.942 981.478 669.542 982.734 667.734" stroke="#263238" stroke-linecap="round" stroke-linejoin="round"/>
<path d="M977.422 553.998C977.422 553.998 956.391 552.866 945.853 552.866C935.316 552.866 955.215 569.195 955.215 569.195C947.086 571.84 939.274 575.374 931.919 579.733C920.25 586.743 915.547 603.115 915.547 603.115L927.26 601.94C927.26 601.94 913.196 620.62 919.074 632.42C924.952 644.221 921.382 651.101 921.382 651.101L954.127 639.431V652.494C954.127 652.494 993.882 647.835 1004.38 637.297C1014.87 626.76 1014.65 620.664 1014.65 620.664L1029.85 639.387C1029.85 639.387 1032.16 616.004 1042.91 614.829C1053.67 613.653 1053.45 619.531 1053.45 619.531C1053.45 619.531 1054.58 576.249 1044.09 562.228C1033.59 548.207 1005.46 537.669 977.422 553.998Z" fill="#263238" stroke="#263238" stroke-linecap="round" stroke-linejoin="round"/>
<path d="M833.641 1381.54C833.641 1381.54 770.546 1408.41 770.546 1414.29C770.546 1420.17 868.694 1414.29 868.694 1414.29L867.562 1382.72L833.641 1381.54Z" stroke="#263238" stroke-linecap="round" stroke-linejoin="round"/>
<path d="M1125.86 1375.71L1109.49 1402.58C1109.49 1402.58 1094.29 1409.59 1094.29 1415.42C1094.29 1421.26 1136.36 1418.95 1139.88 1418.95C1143.41 1418.95 1157.3 1403.75 1157.3 1399.09C1155.91 1391.17 1153.95 1383.35 1151.42 1375.71H1125.86Z" stroke="#263238" stroke-linecap="round" stroke-linejoin="round"/>
<path d="M993.795 957.256C993.795 957.256 972.72 967.793 969.236 975.98C969.236 975.98 971.588 982.99 993.795 971.277C993.795 971.277 1001.94 955.949 993.795 957.256Z" stroke="#263238" stroke-linecap="round" stroke-linejoin="round"/>
<path d="M1109.49 770.236L1124.12 879.095C1124.12 879.095 1016 939.533 1006.55 944.41C997.104 949.287 985.521 966.617 984.346 970.101C983.17 973.584 974.984 981.814 985.521 983.164C996.059 984.514 1014.74 970.101 1014.74 970.101C1014.74 970.101 1026.41 963.09 1029.94 954.904C1033.46 946.718 1034.59 943.234 1034.59 943.234C1034.59 943.234 1146.24 907.311 1154.43 903.827C1162.61 900.344 1168.45 890.982 1169.62 879.269C1170.8 867.556 1162 762.049 1152.64 734.007C1143.28 705.965 1139.8 693.12 1102.39 695.428" fill="#263238"/>
<path d="M1109.49 770.236L1124.12 879.095C1124.12 879.095 1016 939.533 1006.55 944.41C997.104 949.287 985.521 966.617 984.346 970.101C983.17 973.584 974.984 981.814 985.521 983.164C996.059 984.514 1014.74 970.101 1014.74 970.101C1014.74 970.101 1026.41 963.09 1029.94 954.904C1033.46 946.718 1034.59 943.234 1034.59 943.234C1034.59 943.234 1146.24 907.311 1154.43 903.827C1162.61 900.344 1168.45 890.982 1169.62 879.269C1170.8 867.556 1162 762.049 1152.64 734.007C1143.28 705.965 1139.8 693.12 1102.39 695.428" stroke="#263238" stroke-linecap="round" stroke-linejoin="round"/>
<path d="M1042.26 941.058C1042.26 941.058 1146.33 907.312 1154.51 903.828C1162.7 900.345 1168.54 890.983 1169.71 879.27C1170.45 871.867 1167.53 821.182 1162.53 784.954C1145.53 783.167 1128.38 786.279 1113.1 793.924L1118.42 866.729C1118.42 866.729 1016 939.708 1006.64 944.411C997.278 949.114 985.609 966.618 984.433 970.102C983.257 973.585 975.071 981.815 985.609 983.165C996.146 984.515 1014.83 970.102 1014.83 970.102C1014.83 970.102 1026.5 963.091 1030.02 954.905C1032.86 949.324 1037.07 944.558 1042.26 941.058Z" fill="white" stroke="#263238" stroke-linecap="round" stroke-linejoin="round"/>
<path d="M927.173 885.975L834.817 957.256C826.566 960.435 817.898 962.4 809.083 963.091C798.589 963.091 788.051 988.825 788.051 988.825C794.975 990.383 802.159 990.383 809.083 988.825C823.147 986.474 827.807 978.287 827.807 978.287L835.993 972.452C835.993 972.452 824.28 986.474 831.29 986.474C838.301 986.474 852.365 965.442 852.365 965.442L940.976 922.203C947.052 919.168 951.728 913.915 954.04 907.529L970.151 863.158L974.941 827.539L936.317 817.089C933.705 845.218 927.173 885.975 927.173 885.975Z" fill="white" stroke="#263238" stroke-linecap="round" stroke-linejoin="round"/>
<path d="M1028.5 765.142H640.83V786.347H1028.5V765.142Z" fill="#CB0086" stroke="#263238" stroke-linecap="round" stroke-linejoin="round"/>
<path d="M1028.5 786.347L1105.88 826.276V807.465L1028.5 765.185V786.347Z" fill="#CB0086" stroke="#263238" stroke-linecap="round" stroke-linejoin="round"/>
<path d="M1105.88 826.276H713.113L640.83 786.347H1028.5L1105.88 826.276Z" fill="#808080" stroke="#263238" stroke-linecap="round" stroke-linejoin="round"/>
<path d="M745.553 790.614L799.199 826.799" stroke="#263238" stroke-width="2" stroke-linecap="round" stroke-linejoin="round"/>
<path d="M927.304 790.614L980.949 826.799" stroke="#263238" stroke-width="2" stroke-linecap="round" stroke-linejoin="round"/>
<path d="M781.781 816.087V963.613" stroke="#263238" stroke-width="2" stroke-linecap="round" stroke-linejoin="round"/>
<path d="M963.488 816.087V963.613" stroke="#263238" stroke-width="2" stroke-linecap="round" stroke-linejoin="round"/>
<path d="M678.844 1012.08L1061.64 1418.6" stroke="#263238" stroke-width="3" stroke-linecap="round" stroke-linejoin="round"/>
<path d="M1061.64 1012.08L678.844 1418.6" stroke="#263238" stroke-width="3" stroke-linecap="round" stroke-linejoin="round"/>
<path d="M1112.71 939.359H600.248V979.594H1112.71V939.359Z" fill="#CB0086" stroke="#263238" stroke-linecap="round" stroke-linejoin="round"/>
<path d="M1071.69 1018.91H641.222L600.248 978.68H1112.71L1071.69 1018.91Z" fill="#808080" stroke="#263238" stroke-linecap="round" stroke-linejoin="round"/>
<path d="M1112.71 939.359L1173.59 977.155V1012.6L1112.71 978.679V939.359Z" fill="white" stroke="#263238" stroke-linecap="round" stroke-linejoin="round"/>
<path d="M1071.69 1018.91H1150.73L1173.59 1012.6L1110.58 977.591L1071.69 1018.91Z" fill="#808080" stroke="#263238" stroke-linecap="round" stroke-linejoin="round"/>
<path d="M755.437 666.994C755.437 670.602 756.507 674.13 758.512 677.13C760.517 680.13 763.366 682.469 766.7 683.85C770.034 685.231 773.702 685.592 777.241 684.888C780.78 684.184 784.031 682.446 786.583 679.895C789.134 677.343 790.872 674.092 791.576 670.553C792.28 667.014 791.919 663.346 790.538 660.012C789.157 656.678 786.818 653.829 783.818 651.824C780.818 649.819 777.29 648.749 773.682 648.749C768.847 648.761 764.213 650.686 760.793 654.106C757.374 657.525 755.449 662.159 755.437 666.994Z" fill="#263238" stroke="#263238" stroke-linecap="round" stroke-linejoin="round"/>
<path d="M775.554 667.952C775.346 669.682 774.793 671.353 773.929 672.866C773.066 674.379 771.908 675.704 770.524 676.763C769.141 677.822 767.559 678.594 765.873 679.032C764.187 679.471 762.43 679.568 760.706 679.317L695.085 668.562C692.884 668.258 690.882 667.123 689.489 665.391C688.097 663.658 687.419 661.459 687.596 659.244C687.816 656.98 688.887 654.885 690.592 653.382C692.298 651.878 694.511 651.079 696.784 651.144L763.231 653.975C764.963 654.069 766.659 654.506 768.22 655.263C769.781 656.019 771.176 657.079 772.323 658.38C773.47 659.681 774.347 661.198 774.901 662.841C775.456 664.485 775.678 666.222 775.554 667.952Z" fill="white" stroke="#263238" stroke-linecap="round" stroke-linejoin="round"/>
<path d="M731.14 654.366V703.919L530.752 911.056" stroke="#263238" stroke-width="2" stroke-linecap="round" stroke-linejoin="round"/>
<path d="M585.921 853.666V1422.17" stroke="#263238" stroke-width="2" stroke-linecap="round" stroke-linejoin="round"/>
<path d="M1587.34 1407.84H421.457V1881.9H1587.34V1407.84Z" fill="#545D62" stroke="#263238" stroke-linecap="round" stroke-linejoin="round"/>
<path d="M1326.69 1407.84H365.591V1881.9H1326.69V1407.84Z" fill="#263238" stroke="#263238" stroke-linecap="round" stroke-linejoin="round"/>
<path d="M1160.65 1394.22C1160.65 1394.22 1161.87 1448.91 1166.05 1471.24C1170.23 1493.58 1171.63 1612.33 1171.63 1612.33C1171.63 1612.33 1146.5 1661.36 1135.31 1700.55C1124.12 1739.73 1103.18 1809.4 1103.18 1809.4L1153.47 1819.2C1153.47 1819.2 1182.82 1743.74 1203.76 1707.43C1224.71 1671.11 1241.47 1633.4 1245.69 1611.02C1249.92 1588.64 1276.39 1454.57 1276.39 1454.57L1297.38 1443.42C1297.38 1443.42 1390.96 1467.15 1417.52 1468.55C1444.08 1469.94 1456.71 1469.94 1456.71 1469.94C1456.71 1469.94 1439.94 1511.87 1437.16 1546.79C1434.37 1581.71 1410.59 1655.65 1410.59 1655.65L1445.43 1668.24L1492.94 1543.79C1492.94 1543.79 1529.25 1471.16 1532.12 1458.57C1532.95 1454.97 1532.98 1451.24 1532.23 1447.63C1531.48 1444.01 1529.96 1440.6 1527.77 1437.63C1527.77 1437.63 1438.38 1385.94 1400.67 1373.4C1380.25 1366.3 1359.23 1361.04 1337.88 1357.68L1330.43 1345.97L1164.57 1377.58L1160.65 1394.22Z" fill="white" stroke="#263238" stroke-linecap="round" stroke-linejoin="round"/>
<path d="M1182.73 1077.87C1182.73 1077.87 1110.01 1108.96 1096.12 1128.56C1082.23 1148.15 1114.8 1204.63 1127.87 1242.21C1140.93 1279.78 1160.52 1330.47 1160.52 1330.47V1394.22C1194.02 1400.22 1228.47 1398.25 1261.07 1388.47C1313.32 1372.14 1334.61 1351.72 1334.61 1351.72C1334.61 1351.72 1312.53 1310.05 1311.71 1305.95C1310.88 1301.86 1295.38 1233.19 1295.38 1233.19L1288.02 1115.62C1288.02 1115.62 1343.58 1019.18 1351.77 998.753C1359.95 978.331 1327.25 821.4 1327.25 821.4C1327.25 821.4 1326.42 799.367 1318.28 794.447C1310.14 789.526 1276.57 790.354 1272.52 796.885C1268.47 803.417 1265.16 819.789 1271.69 824.666C1278.22 829.543 1297.82 827.148 1297.82 827.148C1301.26 832.542 1303.24 838.74 1303.56 845.132C1305.18 858.195 1304.39 986.474 1304.39 986.474L1249.79 1050.96L1182.73 1077.87Z" fill="white" stroke="#263238" stroke-linecap="round" stroke-linejoin="round"/>
<path d="M1295.51 1233.19L1288.15 1115.62C1288.15 1115.62 1300.17 1094.77 1313.84 1070.43C1286.06 1058.54 1273.91 1041.34 1268.6 1028.84L1249.74 1051.05L1182.73 1077.87C1182.73 1077.87 1110.01 1108.96 1096.12 1128.56C1082.23 1148.15 1114.8 1204.63 1127.87 1242.21C1140.93 1279.78 1160.52 1330.47 1160.52 1330.47V1394.22C1194.02 1400.22 1228.47 1398.25 1261.07 1388.47C1313.32 1372.14 1334.61 1351.72 1334.61 1351.72C1334.61 1351.72 1312.53 1310.05 1311.71 1305.95C1310.88 1301.86 1295.51 1233.19 1295.51 1233.19Z" fill="#263238" stroke="#263238" stroke-linecap="round" stroke-linejoin="round"/>
<path d="M1145.98 1044.43L1167.23 1084.49C1167.23 1084.49 1181.9 1117.98 1199.89 1114.71C1217.87 1111.44 1217.04 1071.38 1217.04 1071.38L1203.15 1042.78L1145.98 1044.43Z" fill="white" stroke="#263238" stroke-linecap="round" stroke-linejoin="round"/>
<path d="M1181.12 944.716C1181.12 944.716 1147.59 917.762 1140.23 916.935C1132.87 916.107 1104.27 925.121 1087.98 947.981C1071.69 970.842 1072.43 1000.23 1075.7 1004.59C1078.97 1008.94 1119.85 1038.12 1119.85 1038.12C1121.36 1038.69 1122.96 1038.95 1124.56 1038.88C1126.17 1038.82 1127.74 1038.43 1129.19 1037.75C1130.64 1037.06 1131.94 1036.09 1133.01 1034.88C1134.07 1033.68 1134.89 1032.28 1135.4 1030.76C1139.45 1019.31 1159.91 984.993 1173.8 977.635C1187.69 970.276 1186.82 961.872 1181.12 944.716Z" fill="white" stroke="#263238" stroke-linecap="round" stroke-linejoin="round"/>
<path d="M1204.33 974.325C1204.33 974.325 1220.31 1011.73 1221.96 1026.58C1223.62 1041.43 1222.79 1061.72 1199.89 1064.16C1176.98 1066.59 1152.51 1055.19 1145.15 1050.27L1137.79 1045.39C1137.79 1045.39 1133.7 1052.75 1119.81 1052.75C1105.92 1052.75 1110.84 1035.59 1121.46 1031.5C1121.46 1031.5 1130.43 986.517 1145.98 973.454C1161.52 960.391 1169.67 956.298 1187.65 957.953C1205.63 959.607 1204.33 974.325 1204.33 974.325Z" fill="white" stroke="#263238" stroke-linecap="round" stroke-linejoin="round"/>
<path d="M1155.39 995.705C1156.81 992.413 1159.05 989.537 1161.89 987.344C1164.73 985.151 1168.08 983.713 1171.63 983.164" stroke="#263238" stroke-linecap="round" stroke-linejoin="round"/>
<path d="M1187.83 978.767C1187.83 978.767 1189.31 972.105 1200.37 975.806" stroke="#263238" stroke-linecap="round" stroke-linejoin="round"/>
<path d="M1181.95 976.546C1182.41 978.239 1183.35 979.763 1184.65 980.937C1185.96 982.111 1187.57 982.884 1189.31 983.165C1195.23 983.905 1205.55 982.424 1205.55 987.519C1204.68 992.7 1202.93 997.694 1200.37 1002.28" stroke="#263238" stroke-linecap="round" stroke-linejoin="round"/>
<path d="M1204.59 1009.99C1196.84 1013.91 1188.18 1015.68 1179.51 1015.13C1178.97 1015.05 1178.43 1015.13 1177.94 1015.38C1177.46 1015.62 1177.07 1016.01 1176.81 1016.49C1176.56 1016.96 1176.46 1017.51 1176.53 1018.04C1176.6 1018.58 1176.83 1019.08 1177.2 1019.48C1181.55 1024.4 1188.57 1030.71 1195.23 1031.15C1202.93 1031.67 1206.68 1020 1208.29 1012.9C1208.42 1012.42 1208.4 1011.91 1208.24 1011.43C1208.08 1010.96 1207.79 1010.54 1207.4 1010.23C1207 1009.92 1206.53 1009.73 1206.03 1009.69C1205.53 1009.65 1205.03 1009.75 1204.59 1009.99Z" fill="#263238"/>
<path d="M1116.54 1034.33C1116.54 1034.33 1122.95 1017.43 1131.39 998.187C1139.23 980.378 1148.81 960.566 1156.65 950.289C1172.98 928.953 1214.34 912.668 1223.14 926.427C1231.94 940.187 1204.33 974.108 1204.33 974.108C1204.33 974.108 1195.62 961.567 1185.52 961.567C1175.42 961.567 1151.03 978.985 1145.37 989.13C1134.79 1008.2 1116.54 1034.33 1116.54 1034.33Z" fill="#263238" stroke="#263238" stroke-linecap="round" stroke-linejoin="round"/>
<path d="M1140.23 1110.62L1182.73 1122.07L1169.67 1193.18C1156.5 1193.09 1143.38 1191.72 1130.48 1189.08C1122.95 1187.45 1116.06 1183.64 1110.69 1178.12C1105.31 1172.59 1101.69 1165.61 1100.26 1158.04" fill="#263238"/>
<path d="M1140.23 1110.62L1182.73 1122.07L1169.67 1193.18C1156.5 1193.09 1143.38 1191.72 1130.48 1189.08C1122.95 1187.45 1116.06 1183.64 1110.69 1178.12C1105.31 1172.59 1101.69 1165.61 1100.26 1158.04" stroke="#263238" stroke-linecap="round" stroke-linejoin="round"/>
<path d="M1247.31 990.785C1247.31 993.937 1246.37 997.018 1244.62 999.639C1242.87 1002.26 1240.38 1004.3 1237.47 1005.51C1234.56 1006.71 1231.35 1007.03 1228.26 1006.42C1225.17 1005.8 1222.33 1004.28 1220.1 1002.05C1217.87 999.825 1216.35 996.985 1215.74 993.894C1215.12 990.802 1215.44 987.598 1216.65 984.686C1217.85 981.774 1219.89 979.285 1222.51 977.534C1225.14 975.782 1228.22 974.848 1231.37 974.848C1235.6 974.848 1239.65 976.527 1242.64 979.515C1245.63 982.504 1247.31 986.558 1247.31 990.785Z" fill="#263238" stroke="#263238" stroke-linecap="round" stroke-linejoin="round"/>
<path d="M1229.71 991.743C1229.88 993.271 1230.35 994.749 1231.11 996.087C1231.86 997.425 1232.88 998.595 1234.1 999.525C1235.33 1000.45 1236.73 1001.12 1238.22 1001.49C1239.71 1001.86 1241.26 1001.92 1242.78 1001.67L1300.08 992.44C1301.99 992.131 1303.71 991.129 1304.93 989.626C1306.14 988.124 1306.76 986.226 1306.66 984.297C1306.53 982.249 1305.61 980.33 1304.09 978.954C1302.57 977.579 1300.56 976.855 1298.51 976.938L1240.51 979.377C1238.97 979.428 1237.46 979.796 1236.07 980.456C1234.68 981.116 1233.44 982.055 1232.43 983.215C1231.42 984.375 1230.65 985.73 1230.19 987.197C1229.72 988.664 1229.56 990.211 1229.71 991.743Z" fill="#263238" stroke="#263238" stroke-linecap="round" stroke-linejoin="round"/>
<path d="M1267.6 971.756C1264.83 971.983 1262.18 972.952 1259.92 974.561C1257.66 976.171 1255.87 978.361 1254.75 980.9C1252.14 986.953 1249.44 994.529 1250.83 997.272C1253.27 1002.19 1258.76 1037.07 1258.76 1037.07C1258.76 1037.07 1156.6 1138.4 1148.42 1147.54C1140.23 1156.69 1144.33 1194.13 1172.93 1191.65C1201.54 1189.17 1276.7 1041.3 1276.7 1041.3C1279.78 1031.7 1281.98 1021.85 1283.27 1011.86C1283.41 1003.67 1281.93 995.53 1278.92 987.911C1280.84 983.432 1283.74 979.443 1287.41 976.241C1291.15 973.585 1274.52 971.233 1267.6 971.756Z" fill="white" stroke="#263238" stroke-linecap="round" stroke-linejoin="round"/>
<path d="M1262.85 974.107C1259.56 980.419 1257.47 987.283 1256.67 994.355" stroke="#263238" stroke-linecap="round" stroke-linejoin="round"/>
<path d="M1271.56 973.367C1266.76 979.313 1264.22 986.761 1264.37 994.399" stroke="#263238" stroke-linecap="round" stroke-linejoin="round"/>
<path d="M1280.27 974.107C1280.27 974.107 1271.82 979.463 1271.3 994.355" stroke="#263238" stroke-linecap="round" stroke-linejoin="round"/>
<path d="M1150.94 1817.46C1150.94 1817.46 1178.99 1846.29 1191.87 1854.6C1204.76 1862.92 1230.54 1865.97 1221.44 1876.59C1212.34 1887.22 1162.35 1878.86 1143.37 1877.33C1124.38 1875.81 1115.37 1861.44 1098.69 1852.34C1082.01 1843.24 1103.05 1809.32 1103.05 1809.32L1150.94 1817.46Z" fill="white" stroke="#263238" stroke-linecap="round" stroke-linejoin="round"/>
<path d="M1410.51 1655.65C1410.9 1649.99 1389.65 1688.66 1395.75 1693.97C1401.84 1699.28 1425.27 1706.82 1433.63 1714.39C1441.99 1721.97 1457.88 1726.54 1476.04 1728.81C1494.2 1731.07 1501.08 1731.85 1501.08 1722.75C1501.08 1713.65 1482.88 1709.69 1482.88 1709.69L1445.43 1668.06L1410.51 1655.65Z" fill="white" stroke="#263238" stroke-linecap="round" stroke-linejoin="round"/>
<path d="M1276.26 778.553H1276.09C1273.08 778.553 1270.65 780.99 1270.65 783.996V800.063C1270.65 803.069 1273.08 805.506 1276.09 805.506H1276.26C1279.27 805.506 1281.71 803.069 1281.71 800.063V783.996C1281.71 780.99 1279.27 778.553 1276.26 778.553Z" fill="white" stroke="#263238" stroke-linecap="round" stroke-linejoin="round"/>
<path d="M1287.58 776.985H1287.41C1284.4 776.985 1281.97 779.422 1281.97 782.428V798.496C1281.97 801.502 1284.4 803.939 1287.41 803.939H1287.58C1290.59 803.939 1293.03 801.502 1293.03 798.496V782.428C1293.03 779.422 1290.59 776.985 1287.58 776.985Z" fill="white" stroke="#263238" stroke-linecap="round" stroke-linejoin="round"/>
<path d="M1298.16 779.337H1297.99C1294.98 779.337 1292.55 781.774 1292.55 784.78V800.847C1292.55 803.854 1294.98 806.29 1297.99 806.29H1298.16C1301.17 806.29 1303.61 803.854 1303.61 800.847V784.78C1303.61 781.774 1301.17 779.337 1298.16 779.337Z" fill="white" stroke="#263238" stroke-linecap="round" stroke-linejoin="round"/>
<path d="M1263.53 808.977L1263.51 809.15C1263.22 812.141 1265.4 814.806 1268.39 815.102L1284.38 816.684C1287.38 816.98 1290.04 814.795 1290.34 811.804L1290.35 811.63C1290.65 808.639 1288.46 805.974 1285.47 805.678L1269.48 804.096C1266.49 803.8 1263.83 805.985 1263.53 808.977Z" fill="white" stroke="#263238" stroke-linecap="round" stroke-linejoin="round"/>
<path d="M1309.88 782.036H1309.7C1306.7 782.036 1304.26 784.473 1304.26 787.479V803.547C1304.26 806.553 1306.7 808.99 1309.7 808.99H1309.88C1312.88 808.99 1315.32 806.553 1315.32 803.547V787.479C1315.32 784.473 1312.88 782.036 1309.88 782.036Z" fill="white" stroke="#263238" stroke-linecap="round" stroke-linejoin="round"/>
<path d="M1301.6 1881.86H1637.98V1726.8H1371.58L1301.6 1881.86Z" fill="#5A6368" stroke="#263238" stroke-linecap="round" stroke-linejoin="round"/>
<path d="M1637.98 1726.8H1418.17V1881.91H1637.98V1726.8Z" fill="#263238" fill-opacity="0.7" stroke="#263238" stroke-linecap="round" stroke-linejoin="round"/>
<path d="M257.211 1271.73L346.737 1278.61L308.854 1298.11C308.854 1298.11 253.771 1314.18 241.187 1307.3C228.603 1300.42 234.263 1274.04 257.211 1271.73Z" fill="white" stroke="#263238" stroke-linecap="round" stroke-linejoin="round"/>
<path d="M228.907 1151.9L274.411 1269.46L232.87 1285.66C232.87 1285.66 225.859 1161 228.907 1151.9Z" fill="#263238" stroke="#263238" stroke-linecap="round" stroke-linejoin="round"/>
<path d="M88.5225 1407.15L89.1756 1412.07L123.183 1622.17C123.183 1622.17 110.599 1684.17 110.599 1717.44C110.599 1750.71 101.411 1839.06 101.411 1839.06H136.987C136.987 1839.06 184.014 1625.69 188.629 1602.66C193.245 1579.62 187.323 1462.23 187.323 1462.23C187.323 1462.23 262.044 1590.03 283.859 1622.17C283.859 1622.17 265.484 1635.97 262.087 1687.48C258.691 1738.99 246.499 1831.7 246.499 1831.7L276.326 1837.45C276.326 1837.45 309.158 1724.23 318.346 1700.11C327.533 1675.99 348.173 1613.02 348.173 1599.09C348.173 1585.15 243.668 1407.06 243.668 1407.06L88.5225 1407.15Z" fill="#2F3A40"/>
<path opacity="0.3" d="M88.5225 1407.15L89.1756 1412.07L123.183 1622.17C123.183 1622.17 110.599 1684.17 110.599 1717.44C110.599 1750.71 101.411 1839.06 101.411 1839.06H136.987C136.987 1839.06 184.014 1625.69 188.629 1602.66C193.245 1579.62 187.323 1462.23 187.323 1462.23C187.323 1462.23 262.044 1590.03 283.859 1622.17C283.859 1622.17 265.484 1635.97 262.087 1687.48C258.691 1738.99 246.499 1831.7 246.499 1831.7L276.326 1837.45C276.326 1837.45 309.158 1724.23 318.346 1700.11C327.533 1675.99 348.173 1613.02 348.173 1599.09C348.173 1585.15 243.668 1407.06 243.668 1407.06L88.5225 1407.15Z" fill="white"/>
<path d="M88.5225 1407.15L89.1756 1412.07L123.183 1622.17C123.183 1622.17 110.599 1684.17 110.599 1717.44C110.599 1750.71 101.411 1839.06 101.411 1839.06H136.987C136.987 1839.06 184.014 1625.69 188.629 1602.66C193.245 1579.62 187.323 1462.23 187.323 1462.23C187.323 1462.23 262.044 1590.03 283.859 1622.17C283.859 1622.17 265.484 1635.97 262.087 1687.48C258.691 1738.99 246.499 1831.7 246.499 1831.7L276.326 1837.45C276.326 1837.45 309.158 1724.23 318.346 1700.11C327.533 1675.99 348.173 1613.02 348.173 1599.09C348.173 1585.15 243.668 1407.06 243.668 1407.06L88.5225 1407.15Z" stroke="#263238" stroke-linecap="round" stroke-linejoin="round"/>
<path d="M169.122 1058.62C169.122 1058.62 144.781 1110.31 140.731 1112.36C136.682 1114.4 76.8528 1124.51 72.8033 1140.7C68.7537 1156.9 63.7026 1416.42 63.7026 1416.42C63.7026 1416.42 141.733 1421.47 182.272 1422.48C206.136 1423.19 229.992 1420.82 253.248 1415.42C253.248 1415.42 260.346 1365.74 252.203 1334.3C244.06 1302.86 233.958 1168.09 228.907 1151.85C223.856 1135.61 196.467 1119.46 195.466 1115.36C194.464 1111.27 213.71 1077.87 213.71 1077.87L169.122 1058.62Z" fill="#263238" stroke="#263238" stroke-linecap="round" stroke-linejoin="round"/>
<path d="M211.447 1129.73C203.565 1122.85 195.989 1117.5 195.466 1115.36C194.465 1111.31 213.711 1077.87 213.711 1077.87L169.122 1058.62C169.122 1058.62 144.781 1110.31 140.732 1112.36C139.469 1112.97 132.85 1114.36 124.229 1116.49C123.837 1128.51 125.796 1162.74 159.978 1166.05C185.582 1168.57 202.346 1146.8 211.447 1129.73Z" fill="white" stroke="#263238" stroke-linecap="round" stroke-linejoin="round"/>
<path d="M252.203 994.747C260.244 993.917 268.113 991.877 275.543 988.694C286.69 983.6 286.69 962.35 280.594 954.208C274.498 946.065 256.253 961.305 246.151 952.205C236.049 943.104 227.906 923.814 215.67 927.864C203.435 931.913 190.371 947.241 190.371 947.241C190.371 947.241 156.843 929.823 140.732 948.155C124.621 966.487 121.485 990.784 129.585 1003.85C137.684 1016.91 142.648 1036.29 136.682 1043.38C130.717 1050.48 133.634 1062.63 150.877 1063.63C168.121 1064.63 171.125 1054.53 171.125 1054.53C171.125 1054.53 189.37 1060.63 199.516 1053.53C209.661 1046.43 217.76 1012.95 229.996 1003.85C236.323 998.663 244.058 995.493 252.203 994.747Z" fill="#263238" stroke="#263238" stroke-linecap="round" stroke-linejoin="round"/>
<path d="M176.22 1040.38C176.22 1040.38 167.076 1018.09 155.928 1031.24C144.781 1044.39 152.88 1056.58 160.98 1061.72C166.659 1065.01 172.814 1067.4 179.224 1068.81C179.224 1068.81 183.274 1076.91 212.709 1091.11C242.145 1105.3 238.836 1083.01 243.19 1073.69C247.544 1064.37 248.284 1040.38 248.284 1040.38C248.284 1040.38 255.382 1046.48 256.384 1041.38C257.385 1036.29 252.334 994.747 252.334 994.747C252.334 994.747 230.04 980.595 220.939 990.697C211.838 1000.8 210.793 1010.99 202.694 1014.04C194.595 1017.08 190.502 1018.09 188.499 1022.14C186.496 1026.19 185.32 1043.43 176.22 1040.38Z" fill="white" stroke="#263238" stroke-linecap="round" stroke-linejoin="round"/>
<path d="M237.529 1060.15C237.529 1060.15 225.903 1057.67 222.594 1049.39" stroke="#263238" stroke-linecap="round" stroke-linejoin="round"/>
<path d="M230.04 1009.64C234.119 1007.75 238.682 1007.17 243.103 1007.98" stroke="#263238" stroke-linecap="round" stroke-linejoin="round"/>
<path d="M240.011 1016.26V1031.19L229.212 1029.54" stroke="#263238" stroke-linecap="round" stroke-linejoin="round"/>
<path d="M95.0978 1135.65C95.0978 1135.65 67.7524 1133.61 57.6067 1146.8C47.4611 1159.99 1 1272.47 1 1272.47L68.8845 1275.52L101.325 1183.29" fill="#263238"/>
<path d="M95.0978 1135.65C95.0978 1135.65 67.7524 1133.61 57.6067 1146.8C47.4611 1159.99 1 1272.47 1 1272.47L68.8845 1275.52L101.325 1183.29" stroke="#263238" stroke-linecap="round" stroke-linejoin="round"/>
<path d="M257.298 1280.61C254.903 1282.48 244.235 1293.67 253.248 1305.95L233.958 1319.02C233.958 1319.02 250.2 1347.41 271.493 1353.5C292.786 1359.6 293.787 1375.8 282.64 1381.85C271.493 1387.9 239.096 1378.85 220.808 1385.9C202.52 1392.95 168.077 1441.68 133.721 1443.68C99.3649 1445.68 66.8378 1403.14 57.6936 1363.6C48.5495 1324.07 77.985 1283.53 105.33 1277.48C132.676 1271.42 160.065 1290.54 186.409 1287.62C212.753 1284.7 233.044 1242.99 260.433 1245.04C287.822 1247.08 267.443 1272.47 257.298 1280.61Z" fill="#CB0086" stroke="#263238" stroke-linecap="round" stroke-linejoin="round"/>
<path d="M233.959 1319.1C233.959 1319.1 220.504 1340.57 245.759 1352.07C271.014 1363.56 270.056 1371.57 252.639 1370.4C235.221 1369.22 209.095 1361.21 195.248 1380.76C181.401 1400.31 156.059 1412.85 127.538 1401.4C99.0169 1389.95 94.2706 1324.5 114.954 1321.06C135.637 1317.62 138.816 1327.99 162.852 1330.25C186.888 1332.51 233.959 1319.1 233.959 1319.1Z" fill="white" stroke="#263238" stroke-linecap="round" stroke-linejoin="round"/>
<path d="M144.781 1347.49L474.189 1216.73L479.24 1230.93L152.88 1364.74L144.781 1347.49Z" fill="#787878" stroke="#263238" stroke-linecap="round" stroke-linejoin="round"/>
<path d="M59.6532 1274.51C59.6532 1274.51 155.928 1330.42 163.026 1330.42C170.123 1330.42 186.322 1322.33 190.371 1322.33C194.421 1322.33 216.759 1338.52 216.759 1342.62C216.759 1346.71 215.714 1349.71 209.661 1349.71C203.608 1349.71 198.514 1357.81 194.464 1361.86C190.415 1365.91 168.077 1360.86 165.072 1357.81C162.068 1354.77 152.009 1345.62 152.009 1345.62C159.281 1349.98 68.2313 1320.5 11.1021 1289.89C6.74773 1287.49 3.00298 1282.79 7.05254 1273.69C11.1021 1264.59 59.6532 1274.51 59.6532 1274.51Z" fill="white" stroke="#263238" stroke-linecap="round" stroke-linejoin="round"/>
<path d="M474.188 1216.73L475.277 1198.27L560.187 1189.08C560.187 1189.08 567.067 1204.02 556.747 1208.59C553.766 1209.91 550.482 1210.4 547.247 1210C544.011 1209.6 540.944 1208.33 538.372 1206.33C538.372 1206.33 516.6 1224.66 508.544 1228.1C500.489 1231.54 479.239 1230.93 479.239 1230.93L474.188 1216.73Z" fill="white" stroke="#263238" stroke-linecap="round" stroke-linejoin="round"/>
<path d="M136.987 1839.01C136.987 1839.01 162.199 1857.39 184.014 1863.14C205.829 1868.88 215.017 1876.9 208.137 1880.55C201.257 1884.21 95.6641 1880.55 95.6641 1880.55C95.6641 1880.55 99.104 1859.91 101.412 1839.23L136.987 1839.01Z" fill="white" stroke="#263238" stroke-linecap="round" stroke-linejoin="round"/>
<path d="M337.549 1277.48C337.549 1277.48 338.724 1295.81 345.604 1294.89C352.484 1293.98 373.124 1286.84 376.564 1281.13C380.004 1275.43 377.74 1261.63 367.42 1261.63C357.1 1261.63 337.549 1277.48 337.549 1277.48Z" fill="white" stroke="#263238" stroke-linecap="round" stroke-linejoin="round"/>
<path d="M246.455 1831.79C246.455 1831.79 234.394 1861.27 233.392 1864.53C232.391 1867.8 245.062 1876.24 264.657 1878.55C281.085 1880.88 297.626 1882.34 314.209 1882.91C326.793 1882.91 329.145 1883.82 331.017 1882.43C332.889 1881.03 330.538 1872.63 329.145 1871.24C327.751 1869.84 302.061 1862.53 292.699 1855.34C286.123 1849.88 280.45 1843.42 275.891 1836.18L246.455 1831.79Z" fill="white" stroke="#263238" stroke-linecap="round" stroke-linejoin="round"/>
<path d="M383.313 1881.86H719.688V1726.8H453.244L383.313 1881.86Z" fill="#5A6368" stroke="#263238" stroke-linecap="round" stroke-linejoin="round"/>
<path d="M719.688 1726.8H499.879V1881.9H719.688V1726.8Z" fill="#263238" fill-opacity="0.5" stroke="#263238" stroke-linecap="round" stroke-linejoin="round"/>
<path d="M16.6323 1881.86H1951.23V1968.69" stroke="#263238" stroke-linecap="round" stroke-linejoin="round"/>
<path d="M1951.75 147.736H232.87" stroke="#263238" stroke-width="4" stroke-linecap="round" stroke-linejoin="round"/>
<path d="M446.669 111.029H349.044V213.096H446.669V111.029Z" fill="#263238"/>
<path d="M1174.54 111.029H1076.92V213.096H1174.54V111.029Z" fill="#263238"/>
<path d="M803.066 96.2777L712.755 133.354L751.518 227.773L841.828 190.697L803.066 96.2777Z" fill="#263238"/>
<path d="M1504.31 96.263L1414 133.339L1452.76 227.758L1543.07 190.682L1504.31 96.263Z" fill="#263238"/>
</svg>
