<svg width="1974" height="1913" viewBox="0 0 1974 1913" fill="none" xmlns="http://www.w3.org/2000/svg">
<path d="M969.045 1912.45C1504.23 1912.45 1938.09 1855.83 1938.09 1785.99C1938.09 1716.15 1504.23 1659.54 969.045 1659.54C433.856 1659.54 0 1716.15 0 1785.99C0 1855.83 433.856 1912.45 969.045 1912.45Z" fill="#CB0086"/>
<path opacity="0.5" d="M969.045 1912.45C1504.23 1912.45 1938.09 1855.83 1938.09 1785.99C1938.09 1716.15 1504.23 1659.54 969.045 1659.54C433.856 1659.54 0 1716.15 0 1785.99C0 1855.83 433.856 1912.45 969.045 1912.45Z" fill="white"/>
<path d="M102.531 1637.07H1939.54" stroke="#263238" stroke-miterlimit="10"/>
<path d="M1837.23 629.958C1836.81 629.955 1836.41 629.821 1836.07 629.574C1718.93 550.711 1565.39 536.826 1387.5 520.763C1271.64 510.296 1140.4 498.42 998.736 467.02C641.544 387.9 441.694 127.13 439.729 124.481C439.401 124.049 439.249 123.509 439.305 122.969C439.36 122.43 439.619 121.932 440.028 121.576C440.485 121.247 441.052 121.108 441.61 121.187C442.167 121.267 442.672 121.559 443.019 122.003C445.027 124.609 643.808 384.183 999.591 462.961C1141.13 494.319 1272.24 506.152 1387.97 516.619C1566.29 532.768 1720.34 546.524 1838.34 626.156C1838.81 626.477 1839.13 626.97 1839.25 627.529C1839.36 628.089 1839.25 628.669 1838.93 629.147C1838.73 629.399 1838.47 629.603 1838.17 629.744C1837.88 629.884 1837.55 629.957 1837.23 629.958Z" fill="#CB0086"/>
<path d="M1776.13 695.578C1775.7 695.581 1775.29 695.447 1774.94 695.194C1657.8 616.33 1504.3 602.446 1326.37 586.383C1210.51 575.916 1079.27 564.04 937.602 532.597C580.41 453.477 380.56 192.707 378.595 189.93C378.421 189.708 378.294 189.453 378.221 189.18C378.148 188.907 378.132 188.623 378.171 188.344C378.211 188.064 378.307 187.796 378.454 187.555C378.6 187.313 378.793 187.104 379.023 186.939C379.247 186.771 379.502 186.649 379.774 186.579C380.046 186.509 380.329 186.494 380.606 186.534C380.884 186.573 381.151 186.667 381.392 186.81C381.634 186.953 381.845 187.142 382.013 187.367C383.978 189.973 582.803 449.504 938.542 528.325C1080.08 559.682 1211.19 571.516 1326.92 581.983C1505.24 598.131 1659.29 611.887 1777.29 691.52C1777.76 691.841 1778.09 692.334 1778.2 692.893C1778.31 693.452 1778.2 694.033 1777.89 694.51C1777.71 694.821 1777.45 695.082 1777.15 695.268C1776.84 695.455 1776.49 695.561 1776.13 695.578Z" fill="#CB0086"/>
<path d="M1715 761.155C1714.57 761.159 1714.15 761.024 1713.8 760.771C1596.66 681.908 1443.17 668.023 1265.23 651.96C1149.37 641.493 1018.13 629.617 876.468 598.174C519.276 518.883 319.427 258.284 317.461 255.635C317.293 255.411 317.171 255.155 317.101 254.884C317.031 254.612 317.016 254.329 317.056 254.052C317.095 253.774 317.189 253.507 317.332 253.265C317.475 253.024 317.664 252.813 317.889 252.645C318.113 252.476 318.368 252.354 318.64 252.284C318.912 252.215 319.195 252.199 319.472 252.239C319.75 252.279 320.017 252.373 320.259 252.516C320.5 252.659 320.711 252.848 320.879 253.072C322.844 255.678 521.669 515.209 877.408 594.03C1018.94 625.387 1150.1 637.221 1265.79 647.688C1444.11 663.836 1598.16 677.593 1716.15 757.225C1716.62 757.538 1716.95 758.024 1717.06 758.576C1717.17 759.128 1717.06 759.702 1716.75 760.173C1716.57 760.47 1716.31 760.716 1716 760.888C1715.7 761.06 1715.35 761.152 1715 761.155Z" fill="#CB0086"/>
<path d="M1653.87 826.689C1653.44 826.708 1653.02 826.588 1652.67 826.348C1535.53 747.484 1382.03 733.6 1204.1 717.537C1088.28 707.027 956.998 695.194 815.334 663.751C458.142 584.631 258.292 323.818 256.327 321.212C255.987 320.759 255.841 320.189 255.921 319.628C256.001 319.068 256.301 318.562 256.754 318.222C257.208 317.882 257.777 317.736 258.338 317.816C258.899 317.896 259.405 318.196 259.745 318.649C261.71 321.255 460.535 580.786 816.274 659.607C957.81 690.964 1088.96 702.798 1204.65 713.265C1382.97 729.371 1537.02 743.17 1655.06 822.802C1655.52 823.122 1655.84 823.61 1655.94 824.162C1656.05 824.713 1655.93 825.284 1655.62 825.75C1655.43 826.042 1655.17 826.282 1654.86 826.446C1654.56 826.61 1654.21 826.694 1653.87 826.689Z" fill="#CB0086"/>
<path d="M587.887 247.689C587.887 247.689 568.534 254.396 575.07 258.839C581.607 263.282 603.309 320.486 598.823 327.92C594.338 335.353 580.282 310.831 572.08 318.991C563.877 327.151 575.797 347.23 588.442 345.734C601.088 344.239 607.026 331.636 604.035 315.829C601.045 300.023 590.834 275.372 589.553 269.99C588.271 264.607 594.039 261.83 602.925 266.999C611.811 272.168 627.447 263.282 631.932 253.627C636.418 243.972 632.659 227.653 632.659 227.653C632.659 227.653 635.606 235.813 620.782 239.529C605.958 243.246 593.056 245.468 587.887 247.689Z" fill="#CB0086"/>
<path d="M501.932 504.614C501.932 504.614 482.622 511.321 489.115 515.764C495.609 520.207 517.354 577.411 512.911 584.845C508.468 592.278 494.327 567.756 486.167 575.916C478.008 584.076 489.884 604.155 502.487 602.659C515.09 601.164 521.071 588.561 518.123 572.754C515.175 556.948 504.751 531.913 503.256 526.701C501.761 521.489 507.528 518.541 516.628 523.711C525.727 528.88 541.15 519.994 545.593 510.339C550.036 500.684 546.319 484.364 546.319 484.364C546.319 484.364 549.309 492.524 534.442 496.241C519.575 499.957 507.144 502.393 501.932 504.614Z" fill="#CB0086"/>
<path d="M1683.73 571.345C1674.04 566.426 1664.64 560.963 1655.58 554.983C1641.9 545.84 1634.21 550.241 1636.18 556.307C1638.14 562.373 1626.4 605.394 1608.88 628.121C1591.37 650.849 1592.99 624.917 1579.79 620.432C1566.59 615.946 1559.45 628.976 1569.58 644.099C1579.7 659.222 1602.6 654.651 1605.63 645.381C1608.67 636.11 1630.11 595.482 1636.48 585.571C1642.84 575.66 1647.54 576.215 1659.08 587.707C1664 592.905 1670.14 596.798 1676.94 599.035C1683.74 601.272 1690.99 601.784 1698.04 600.524C1698.04 600.524 1674.42 645.808 1667.2 660.333C1659.98 674.858 1653.99 693.229 1643.36 692.844C1632.72 692.46 1620.71 671.483 1612.26 684.3C1603.8 697.116 1629.05 718.947 1642.63 712.752C1656.22 706.558 1664.55 678.105 1674.63 658.453C1684.71 638.802 1713.89 587.024 1712.14 579.633C1710.39 572.242 1696.8 579.846 1683.73 571.345Z" fill="#CB0086"/>
<path d="M1409.8 658.453C1402.95 654.97 1396.31 651.105 1389.89 646.876C1380.19 640.425 1374.9 643.543 1376.18 647.816C1377.46 652.088 1369.26 682.548 1356.87 698.611C1344.48 714.674 1345.63 696.347 1336.28 693.186C1326.92 690.024 1321.92 699.252 1329.1 709.932C1336.28 720.613 1352.43 717.366 1354.73 710.829C1361.14 696.334 1368.41 682.239 1376.52 668.621C1381.05 661.7 1384.38 661.999 1392.54 670.116C1396.03 673.777 1400.38 676.517 1405.18 678.09C1409.99 679.663 1415.12 680.02 1420.1 679.13C1420.1 679.13 1403.39 711.128 1398.27 721.339C1393.14 731.549 1388.95 744.622 1381.18 744.366C1373.4 744.109 1365.2 729.157 1359.22 738.385C1353.24 747.612 1371.09 762.907 1380.58 758.506C1390.06 754.106 1396.09 734.027 1403.18 720.057C1410.27 706.087 1430.95 669.561 1429.71 664.52C1428.47 659.479 1419.16 664.477 1409.8 658.453Z" fill="#CB0086"/>
<path d="M1477.21 721.125C1472.07 718.55 1467.06 715.698 1462.22 712.581C1454.91 707.711 1450.9 710.061 1451.88 713.265C1452.86 716.469 1446.67 739.453 1437.31 751.714C1427.96 763.975 1428.77 749.962 1421.8 747.442C1414.84 744.921 1410.95 752.013 1416.38 760.044C1421.8 768.076 1433.98 765.684 1435.56 760.728C1440.42 749.807 1445.91 739.179 1452.01 728.901C1455.43 723.689 1457.95 723.902 1464.1 730.054C1466.72 732.82 1470 734.889 1473.62 736.075C1477.25 737.261 1481.11 737.526 1484.86 736.847C1484.86 736.847 1472.26 760.984 1468.41 768.674C1464.57 776.364 1461.36 786.232 1455.6 786.019C1449.83 785.805 1443.55 774.57 1439.02 781.533C1434.49 788.497 1447.99 799.989 1455.21 796.699C1462.43 793.41 1466.92 778.244 1472.3 767.734C1477.68 757.225 1493.28 729.67 1492.34 725.697C1491.4 721.723 1484.18 725.654 1477.21 721.125Z" fill="#CB0086"/>
<path d="M489.756 247.176C482.943 243.695 476.326 239.844 469.933 235.642C460.236 229.148 454.938 232.267 456.22 236.539C457.501 240.811 449.299 271.271 436.91 287.377C424.521 303.483 425.674 285.07 416.318 281.909C406.962 278.747 401.964 288.018 409.141 298.655C416.318 309.293 432.467 306.089 434.774 299.552C441.18 285.057 448.456 270.962 456.562 257.344C461.09 250.423 464.422 250.722 472.582 258.839C476.034 262.466 480.327 265.186 485.082 266.759C489.836 268.331 494.904 268.707 499.838 267.853C499.838 267.853 483.091 299.852 478.008 310.062C472.924 320.272 468.694 333.345 460.919 333.089C453.144 332.832 444.941 317.88 438.96 327.108C432.979 336.335 450.837 351.63 460.321 347.229C469.805 342.829 475.829 322.75 482.921 308.78C490.012 294.81 510.689 258.241 509.45 253.243C508.212 248.244 498.984 253.2 489.756 247.176Z" fill="#CB0086"/>
<path d="M1852.48 1087.89C1852.05 1087.88 1851.63 1087.75 1851.28 1087.5C1717.69 997.532 1542.62 981.725 1339.91 963.397C1207.86 951.435 1058.2 937.765 896.547 902.092C683.753 855.099 521.84 751.329 423.495 672.722C316.906 587.493 259.873 512.39 259.318 511.663C259.15 511.439 259.027 511.184 258.957 510.912C258.888 510.64 258.872 510.357 258.912 510.08C258.952 509.802 259.046 509.535 259.189 509.293C259.332 509.052 259.521 508.841 259.745 508.673C259.969 508.504 260.225 508.382 260.497 508.312C260.768 508.243 261.051 508.227 261.329 508.267C261.606 508.307 261.874 508.401 262.115 508.544C262.356 508.687 262.567 508.876 262.736 509.1C263.291 509.826 320.067 584.588 426.272 669.475C524.275 747.783 685.547 850.998 897.445 897.948C1058.85 933.706 1208.37 947.206 1340.29 959.125C1543.6 977.538 1719.14 993.302 1853.67 1083.96C1854.14 1084.28 1854.47 1084.77 1854.58 1085.33C1854.69 1085.89 1854.58 1086.47 1854.27 1086.95C1854.07 1087.23 1853.8 1087.47 1853.49 1087.63C1853.18 1087.8 1852.83 1087.88 1852.48 1087.89Z" fill="#CB0086"/>
<path d="M1782.8 1162.65C1782.37 1162.65 1781.95 1162.52 1781.6 1162.26C1647.97 1072.29 1472.9 1056.49 1270.23 1038.16C1138.18 1026.2 988.483 1012.53 826.826 976.855C614.075 929.861 452.161 826.091 353.817 747.484C247.228 662.256 190.195 587.152 189.597 586.425C189.268 585.968 189.128 585.402 189.208 584.844C189.288 584.287 189.58 583.782 190.024 583.435C190.477 583.095 191.047 582.949 191.608 583.029C192.169 583.109 192.675 583.409 193.014 583.862C193.57 584.589 250.389 659.351 356.594 744.238C454.554 822.546 615.869 925.76 827.766 972.711C989.167 1008.47 1138.69 1021.97 1270.61 1033.89C1473.88 1052.3 1649.47 1068.06 1783.95 1158.72C1784.34 1158.97 1784.64 1159.34 1784.8 1159.77C1784.96 1160.2 1784.97 1160.67 1784.84 1161.11C1784.71 1161.56 1784.44 1161.94 1784.08 1162.22C1783.71 1162.5 1783.26 1162.65 1782.8 1162.65Z" fill="#CB0086"/>
<path d="M1713.12 1237.41C1712.69 1237.41 1712.27 1237.27 1711.92 1237.03C1578.29 1146.89 1403.22 1131.25 1200.47 1112.92C1068.41 1100.96 918.762 1087.29 757.105 1051.62C544.311 1004.62 382.397 900.854 284.053 822.247C177.25 737.018 120.431 661.914 119.875 661.188C119.707 660.963 119.585 660.708 119.515 660.436C119.445 660.164 119.43 659.882 119.47 659.604C119.509 659.326 119.603 659.059 119.746 658.818C119.889 658.576 120.078 658.366 120.303 658.197C120.527 658.029 120.782 657.906 121.054 657.837C121.326 657.767 121.609 657.752 121.886 657.791C122.164 657.831 122.431 657.925 122.673 658.068C122.914 658.211 123.125 658.4 123.293 658.624C123.849 659.351 180.625 734.113 286.83 819C384.832 897.308 546.105 1000.52 758.002 1047.47C919.403 1083.23 1068.93 1096.73 1200.85 1108.65C1404.16 1127.06 1579.7 1142.83 1714.23 1233.48C1714.7 1233.8 1715.03 1234.3 1715.14 1234.85C1715.25 1235.41 1715.14 1235.99 1714.83 1236.47C1714.63 1236.75 1714.38 1236.98 1714.08 1237.14C1713.79 1237.3 1713.46 1237.4 1713.12 1237.41Z" fill="#CB0086"/>
<path d="M1643.4 1312.17C1642.97 1312.18 1642.55 1312.04 1642.2 1311.79C1508.57 1221.82 1333.5 1206.01 1130.83 1187.68C998.779 1175.72 849.084 1162.05 687.427 1126.38C474.675 1079.39 312.762 975.616 214.418 897.009C107.828 811.78 50.7954 736.676 50.1973 735.95C49.8682 735.493 49.7289 734.926 49.8085 734.369C49.8882 733.811 50.1806 733.306 50.6245 732.959C51.0778 732.62 51.6474 732.474 52.2083 732.554C52.7691 732.634 53.2751 732.933 53.615 733.387C54.1704 734.113 110.99 808.875 217.195 893.762C315.154 972.07 476.47 1075.28 688.367 1122.24C849.768 1157.99 999.292 1171.49 1131.21 1183.41C1334.48 1201.82 1510.07 1217.59 1644.6 1308.24C1645.06 1308.57 1645.38 1309.07 1645.48 1309.63C1645.59 1310.18 1645.47 1310.76 1645.15 1311.23C1644.96 1311.52 1644.7 1311.76 1644.39 1311.92C1644.09 1312.08 1643.75 1312.17 1643.4 1312.17Z" fill="#CB0086"/>
<path d="M480.998 909.056C480.998 909.056 458.954 916.703 466.558 921.872C474.163 927.042 498.77 992.149 493.686 1000.65C488.602 1009.15 472.326 981.17 463.183 990.483C454.041 999.796 467.455 1022.65 481.81 1020.94C496.164 1019.23 503.17 1004.88 499.624 987.065C496.079 969.25 484.373 940.499 482.536 934.561C480.699 928.622 487.62 925.247 497.787 931.186C507.955 937.124 525.727 926.914 530.811 915.934C535.895 904.955 531.665 886.286 531.665 886.286C531.665 886.286 535.04 895.599 518.123 899.828C501.205 904.058 487.022 906.536 480.998 909.056Z" fill="#CB0086"/>
<path d="M1458.97 916.703C1458.97 916.703 1436.97 924.35 1444.57 929.519C1452.18 934.689 1476.79 999.796 1471.7 1008.25C1466.62 1016.71 1450.34 988.774 1441.2 998.087C1432.06 1007.4 1445.47 1030.3 1459.83 1028.59C1474.18 1026.88 1481.19 1012.48 1477.6 994.712C1474.01 976.94 1462.35 948.146 1460.51 942.208C1458.67 936.269 1465.59 932.894 1475.76 938.833C1485.93 944.771 1503.7 934.56 1508.78 923.581C1513.87 912.602 1509.64 893.933 1509.64 893.933C1509.64 893.933 1513.01 903.246 1496.1 907.475C1479.18 911.705 1464.91 914.182 1458.97 916.703Z" fill="#CB0086"/>
<path d="M1354.77 1132.15C1354.77 1132.15 1332.73 1139.79 1340.38 1144.96C1348.02 1150.13 1372.55 1215.24 1367.46 1223.78C1362.38 1232.33 1346.32 1204.3 1336.96 1213.61C1327.6 1222.93 1341.23 1245.78 1355.63 1244.07C1370.03 1242.37 1376.78 1228.01 1373.4 1210.2C1370.03 1192.38 1358.15 1163.63 1356.31 1157.69C1354.48 1151.75 1361.4 1148.38 1371.56 1154.32C1381.73 1160.26 1399.55 1150.05 1404.63 1139.07C1409.71 1128.09 1405.44 1109.42 1405.44 1109.42C1405.44 1109.42 1408.86 1118.73 1391.9 1122.96C1374.94 1127.19 1360.71 1129.8 1354.77 1132.15Z" fill="#CB0086"/>
<path d="M369.154 780.85C358.13 775.29 347.419 769.128 337.07 762.394C321.434 751.928 312.89 756.926 314.941 763.89C316.991 770.853 303.79 819.812 283.84 845.786C263.889 871.761 265.683 842.069 250.645 836.986C235.607 831.902 227.448 846.811 239.025 863.985C250.603 881.159 276.662 875.99 280.08 865.438C283.498 854.886 308.02 808.576 315.24 797.383C322.46 786.19 328.056 786.703 340.872 799.818C346.489 805.726 353.486 810.146 361.233 812.681C368.981 815.217 377.237 815.788 385.26 814.343C385.26 814.343 358.516 865.78 350.314 882.227C342.111 898.675 335.276 919.779 323.1 919.352C310.925 918.925 297.468 894.83 287.642 909.697C277.816 924.564 306.824 949.214 322.289 942.165C337.754 935.116 347.323 902.691 358.773 880.262C370.222 857.833 403.544 798.835 401.494 790.548C399.443 782.26 384.021 790.548 369.154 780.85Z" fill="#CB0086"/>
<path d="M1617.94 1026.92C1610.14 1022.94 1602.57 1018.54 1595.25 1013.72C1584.23 1006.33 1578.16 1009.88 1579.62 1014.79C1581.07 1019.7 1571.76 1054.35 1557.62 1072.68C1543.47 1091.01 1544.8 1070.07 1534.16 1066.48C1523.52 1062.9 1517.76 1073.45 1525.92 1085.58C1534.08 1097.71 1552.57 1094.12 1554.97 1086.61C1562.28 1070.07 1570.58 1053.99 1579.83 1038.46C1584.96 1030.6 1588.8 1030.94 1598.12 1040.21C1602.09 1044.39 1607.04 1047.51 1612.52 1049.3C1618 1051.09 1623.84 1051.49 1629.52 1050.46C1629.52 1050.46 1610.59 1087.08 1604.65 1098.61C1598.71 1110.15 1594.01 1125.14 1585.38 1124.84C1576.75 1124.54 1567.14 1107.5 1560.31 1118.05C1553.47 1128.6 1573.89 1145.99 1584.83 1140.99C1595.77 1135.99 1602.52 1113.05 1610.46 1097.2C1618.41 1081.35 1642.12 1039.61 1640.71 1033.63C1639.3 1027.65 1628.49 1033.76 1617.94 1026.92Z" fill="#CB0086"/>
<path d="M1694.66 1098.35C1688.78 1095.36 1683.08 1092.04 1677.58 1088.4C1669.25 1082.85 1664.76 1085.54 1665.79 1089.21C1666.81 1092.89 1659.85 1119.12 1649.21 1132.87C1638.57 1146.63 1639.51 1130.91 1631.52 1128.17C1623.53 1125.44 1619.13 1133.43 1625.33 1142.57C1631.52 1151.71 1645.36 1148.98 1647.2 1143.38C1652.72 1130.91 1658.99 1118.79 1665.96 1107.07C1669.8 1101.13 1672.71 1101.39 1679.71 1108.39C1682.71 1111.54 1686.44 1113.89 1690.57 1115.24C1694.7 1116.59 1699.1 1116.89 1703.38 1116.13C1703.38 1116.13 1689.03 1143.64 1684.63 1152.4C1680.23 1161.15 1676.64 1172.43 1670.14 1172.18C1663.65 1171.92 1656.39 1159.1 1651.26 1167.05C1646.13 1175 1661.47 1188.11 1669.72 1184.14C1677.96 1180.16 1683.04 1163.08 1689.15 1151.11C1695.26 1139.15 1713.04 1107.71 1711.97 1103.22C1710.9 1098.74 1702.61 1103.52 1694.66 1098.35Z" fill="#CB0086"/>
<path d="M316.137 651.746C308.333 647.761 300.759 643.34 293.452 638.503C282.387 631.112 276.364 634.658 277.773 639.571C279.183 644.483 269.913 679.13 255.815 697.501C241.717 715.871 242.998 694.852 232.318 691.263C221.638 687.675 215.913 698.227 224.116 710.36C232.318 722.492 250.731 718.904 253.166 711.385C260.454 694.853 268.757 678.787 278.03 663.281C283.156 655.377 286.958 655.719 296.272 664.99C300.245 669.168 305.195 672.293 310.677 674.082C316.158 675.872 321.998 676.271 327.672 675.243C327.672 675.243 308.618 711.727 302.808 723.39C296.998 735.052 292.17 749.919 283.541 749.62C274.911 749.321 265.342 732.276 258.506 742.828C251.671 753.38 272.049 770.767 282.985 765.769C293.922 760.771 300.672 737.872 308.618 721.98C316.564 706.087 340.275 664.392 338.865 658.453C337.455 652.515 326.646 658.582 316.137 651.746Z" fill="#CB0086"/>
<path d="M273.416 1484.81C273.416 1484.81 160.162 1286.07 186.264 1235.53C212.367 1184.99 279.14 1275.95 279.14 1275.95C279.14 1275.95 221.082 1090.66 252.995 1009.84C284.908 929.007 340.061 1009.84 342.966 1067.08C345.871 1124.33 331.346 1222.07 331.346 1222.07C331.346 1222.07 354.586 1019.92 409.696 1080.58C464.807 1141.25 340.061 1343.4 340.061 1343.4C340.061 1343.4 424.222 1296.41 421.231 1356.9C418.241 1417.4 319.768 1471.57 319.768 1471.57" fill="#CB0086"/>
<path d="M274.27 1447.77C274.27 1447.77 169.56 1350.07 220.57 1306.28C271.579 1262.49 298.45 1353.27 298.45 1353.27C298.45 1353.27 242.058 1073.83 333.225 1063.71C424.392 1053.58 357.406 1306.28 357.406 1306.28C357.406 1306.28 435.286 1198.49 430.032 1286.07C424.777 1373.65 309.216 1447.77 309.216 1447.77" stroke="#263238" stroke-miterlimit="10"/>
<path d="M325.749 1430L254.96 1353.31" stroke="#263238" stroke-miterlimit="10"/>
<path d="M310.968 1435.89L330.15 1211.73" stroke="#263238" stroke-miterlimit="10"/>
<path d="M308.02 1419.66L371.461 1335.63" stroke="#263238" stroke-miterlimit="10"/>
<path d="M399.742 1404.02H203.994L223.56 1634.93H380.176L399.742 1404.02Z" fill="#263238"/>
<path d="M747.621 1131.63C747.621 1131.63 767.145 1660.14 747.621 1758.27C728.097 1856.4 644.577 1863.79 453.144 1849.09C261.71 1834.4 -20.5919 1804.79 107.016 1753.53C234.625 1702.26 612.494 1714.27 580.581 1746.18C548.668 1778.09 372.016 1768.27 320.494 1748.66C268.973 1729.05 526.581 1665.22 664.016 1682.4C801.45 1699.57 877.622 1760.92 1208.75 1846.79C1539.89 1932.66 1780.49 1836.96 1773.14 1770.74C1765.8 1704.53 1557.23 1701.83 1481.14 1701.83" stroke="#263238" stroke-width="2" stroke-linecap="round" stroke-linejoin="round"/>
<path d="M1127.84 1431.71L1232.12 1401.89L1555.18 1424.87L1495.29 1456.74L1127.84 1431.71Z" fill="#666666" stroke="#263238" stroke-linecap="round" stroke-linejoin="round"/>
<path d="M1555.18 1424.87L1552.62 1768.56L1489.56 1820.04L1495.29 1456.74L1555.18 1424.87Z" fill="#2B2B2B" stroke="#263238" stroke-linecap="round" stroke-linejoin="round"/>
<path d="M1139.8 1765.83L1144.71 1777.06L1162.96 1779.84L1173.25 1770.02L1139.8 1765.83Z" fill="#263238" stroke="#263238" stroke-linecap="round" stroke-linejoin="round"/>
<path d="M1446.71 1812.82L1451.58 1824.06L1469.82 1826.84L1480.12 1817.01L1446.71 1812.82Z" fill="#263238" stroke="#263238" stroke-linecap="round" stroke-linejoin="round"/>
<path d="M1127.84 1431.71L1122.84 1762.24L1489.56 1820.04L1495.28 1456.74L1127.84 1431.71Z" fill="#404040" stroke="#263238" stroke-linecap="round" stroke-linejoin="round"/>
<path d="M1157.02 1462.94L1152.83 1740.33L1460.51 1788.82L1465.34 1483.96L1157.02 1462.94Z" fill="black" stroke="#263238" stroke-linecap="round" stroke-linejoin="round"/>
<path d="M1170.69 1734.34L1460.64 1780.06L1465.34 1483.96L1174.75 1464.13L1170.69 1734.34Z" fill="#263238" stroke="#263238" stroke-linecap="round" stroke-linejoin="round"/>
<path d="M1173.98 1516.85L1464.4 1543.59L1465.34 1483.96L1174.75 1464.13L1173.98 1516.85Z" fill="#CB0086" stroke="#263238" stroke-linecap="round" stroke-linejoin="round"/>
<path d="M1223.75 1490.71C1223.75 1493.45 1222.93 1496.14 1221.41 1498.42C1219.88 1500.7 1217.72 1502.48 1215.18 1503.53C1212.64 1504.58 1209.85 1504.86 1207.16 1504.32C1204.46 1503.79 1201.99 1502.46 1200.05 1500.52C1198.11 1498.58 1196.78 1496.11 1196.25 1493.41C1195.71 1490.72 1195.99 1487.93 1197.04 1485.39C1198.09 1482.85 1199.87 1480.69 1202.15 1479.16C1204.43 1477.64 1207.12 1476.82 1209.86 1476.82C1211.69 1476.82 1213.5 1477.17 1215.18 1477.87C1216.87 1478.56 1218.4 1479.58 1219.7 1480.87C1220.99 1482.17 1222.01 1483.7 1222.7 1485.39C1223.4 1487.07 1223.75 1488.88 1223.75 1490.71Z" fill="#263238" stroke="#263238" stroke-linecap="round" stroke-linejoin="round"/>
<path d="M1261.47 1508.56C1269.14 1508.56 1275.36 1502.35 1275.36 1494.68C1275.36 1487.01 1269.14 1480.79 1261.47 1480.79C1253.8 1480.79 1247.59 1487.01 1247.59 1494.68C1247.59 1502.35 1253.8 1508.56 1261.47 1508.56Z" fill="#263238" stroke="#263238" stroke-linecap="round" stroke-linejoin="round"/>
<path d="M1326.92 1498.65C1326.92 1501.4 1326.11 1504.08 1324.58 1506.37C1323.06 1508.65 1320.89 1510.43 1318.35 1511.48C1315.81 1512.53 1313.02 1512.8 1310.33 1512.27C1307.63 1511.73 1305.16 1510.41 1303.22 1508.47C1301.28 1506.53 1299.95 1504.05 1299.42 1501.36C1298.88 1498.67 1299.16 1495.88 1300.21 1493.34C1301.26 1490.8 1303.04 1488.63 1305.32 1487.11C1307.61 1485.58 1310.29 1484.77 1313.04 1484.77C1314.86 1484.76 1316.67 1485.12 1318.36 1485.81C1320.04 1486.51 1321.58 1487.53 1322.87 1488.82C1324.16 1490.11 1325.18 1491.64 1325.88 1493.33C1326.57 1495.02 1326.93 1496.83 1326.92 1498.65Z" fill="#263238" stroke="#263238" stroke-linecap="round" stroke-linejoin="round"/>
<path d="M1378.53 1502.62C1378.53 1505.37 1377.71 1508.05 1376.19 1510.34C1374.66 1512.62 1372.49 1514.4 1369.96 1515.45C1367.42 1516.5 1364.63 1516.78 1361.93 1516.24C1359.24 1515.71 1356.77 1514.38 1354.83 1512.44C1352.88 1510.5 1351.56 1508.03 1351.03 1505.33C1350.49 1502.64 1350.77 1499.85 1351.82 1497.31C1352.87 1494.77 1354.65 1492.6 1356.93 1491.08C1359.21 1489.55 1361.9 1488.74 1364.64 1488.74C1366.47 1488.73 1368.28 1489.09 1369.96 1489.78C1371.65 1490.48 1373.18 1491.5 1374.47 1492.79C1375.76 1494.08 1376.79 1495.62 1377.48 1497.3C1378.18 1498.99 1378.53 1500.8 1378.53 1502.62Z" fill="#263238" stroke="#263238" stroke-linecap="round" stroke-linejoin="round"/>
<path d="M1272.45 1422.69V1414.15L1288.47 1410.05L1405.36 1418.25L1403.99 1426.45L1392.71 1431.66L1272.45 1422.69Z" fill="#263238"/>
<path d="M1145.18 1326.87C1145.18 1326.87 1120.24 1370.58 1123.35 1381.51C1126.47 1392.45 1177.99 1401.8 1201.41 1417.4C1224.82 1432.99 1246.65 1437.69 1260.7 1432.99C1274.76 1428.29 1287.23 1429.87 1281 1412.7C1274.76 1395.52 1256 1398.69 1241.99 1390.87C1227.98 1383.05 1188.85 1341.7 1185.73 1337C1182.61 1332.3 1145.18 1326.87 1145.18 1326.87Z" fill="#CB0086" stroke="#263238" stroke-linecap="round" stroke-linejoin="round"/>
<path d="M1190.85 1344.13C1190.85 1344.13 1182.95 1359.94 1177.7 1361.22" stroke="#263238" stroke-linecap="round" stroke-linejoin="round"/>
<path d="M1200.08 1353.36C1200.08 1353.36 1200.08 1369.12 1192.18 1373.09" stroke="#263238" stroke-linecap="round" stroke-linejoin="round"/>
<path d="M1215.85 1370.45C1215.85 1370.45 1218.49 1374.38 1210.59 1380.95" stroke="#263238" stroke-linecap="round" stroke-linejoin="round"/>
<path d="M1230.37 1382.28C1230.37 1382.28 1229.05 1383.6 1221.14 1390.18" stroke="#263238" stroke-linecap="round" stroke-linejoin="round"/>
<path d="M1246.48 1392.92C1244.1 1394.43 1242.04 1396.39 1240.41 1398.68C1236.1 1404.25 1232.92 1410.61 1231.05 1417.4C1213.7 1404.66 1194.81 1394.15 1174.83 1386.12C1158.69 1379.41 1141.97 1374.15 1124.89 1370.4C1123.49 1373.91 1122.96 1377.71 1123.35 1381.47C1126.47 1392.36 1177.99 1401.76 1201.41 1417.35C1224.82 1432.95 1246.65 1437.65 1260.7 1432.95C1274.76 1428.25 1287.23 1429.83 1281 1412.65C1275.4 1397.32 1259.76 1398.17 1246.48 1392.92Z" fill="white" stroke="#263238" stroke-linecap="round" stroke-linejoin="round"/>
<path d="M679.053 689.255L657.18 795.204L668.971 793.495L697.552 697.671L679.053 689.255Z" fill="#263238" stroke="#263238" stroke-linecap="round" stroke-linejoin="round"/>
<path d="M855.877 1775.1C858.315 1784.21 861.694 1793.05 865.959 1801.46C871.043 1809.58 944.438 1848.45 940.337 1866.65C938.799 1873.7 933.202 1884 899.581 1886.05C865.959 1888.1 833.704 1862.94 818.068 1854.44C793.675 1841.23 789.531 1835.08 792.436 1821.84C795.341 1808.6 807.73 1763.74 807.73 1763.74C823.368 1769.09 839.495 1772.9 855.877 1775.1Z" fill="#CB0086" stroke="#263238" stroke-linecap="round" stroke-linejoin="round"/>
<path d="M827.809 1801.89C832.388 1798.22 837.663 1795.51 843.317 1793.93C848.97 1792.35 854.885 1791.93 860.704 1792.7" stroke="#263238" stroke-linecap="round" stroke-linejoin="round"/>
<path d="M836.994 1809.79C836.994 1809.79 852.8 1798.34 865.959 1801.46" stroke="#263238" stroke-linecap="round" stroke-linejoin="round"/>
<path d="M850.152 1820.34C850.152 1820.34 869.889 1808.47 881.723 1815.04" stroke="#263238" stroke-linecap="round" stroke-linejoin="round"/>
<path d="M865.959 1830.85C865.959 1830.85 883.047 1821.62 896.206 1825.6" stroke="#263238" stroke-linecap="round" stroke-linejoin="round"/>
<path d="M819.051 1801.93C819.051 1809.53 815.419 1815.73 810.934 1815.73C806.448 1815.73 802.774 1809.53 802.774 1801.93C802.774 1794.32 806.405 1788.17 810.934 1788.17C815.462 1788.17 819.051 1794.37 819.051 1801.93Z" fill="white" stroke="#263238" stroke-linecap="round" stroke-linejoin="round"/>
<path d="M924.358 1843.71C915.302 1843.71 901.631 1845.38 894.454 1854.43C883.218 1868.7 882.235 1872.8 882.235 1872.8C864.179 1859.99 845.105 1848.67 825.203 1838.97C813.127 1833.54 802.501 1825.35 794.187 1815.04C793.503 1817.65 792.948 1819.91 792.564 1821.67C789.53 1834.91 793.674 1841.06 818.196 1854.26C833.832 1862.81 866.087 1887.88 899.708 1885.88C933.33 1883.87 938.926 1873.53 940.464 1866.48C941.703 1860.63 934.612 1852.34 924.358 1843.71Z" fill="white" stroke="#263238" stroke-linecap="round" stroke-linejoin="round"/>
<path d="M904.194 363.805C904.194 363.805 977.675 372.99 989.637 399.221C1001.6 425.452 1050 638.033 1053.93 649.824C1057.86 661.615 1156.25 682.634 1215.33 682.634C1274.42 682.634 1250.75 689.213 1232.42 701.004C1214.09 712.795 1158.94 725.953 1102.51 733.814C1046.07 741.674 1008.05 736.42 991.004 711.513C973.958 686.607 948.795 565.877 931.75 484.706C914.704 403.536 904.194 363.805 904.194 363.805Z" fill="white" stroke="#263238" stroke-linecap="round" stroke-linejoin="round"/>
<path d="M989.466 399.264C977.675 373.033 904.023 363.848 904.023 363.848C904.023 363.848 914.49 403.194 931.579 484.578C937.132 511.151 943.583 541.953 950.291 572.242C955.802 571.345 962.21 570.149 969.601 568.525C987.842 564.552 1011.3 551.052 1027.06 540.927C1012.49 479.793 995.746 413.191 989.466 399.264Z" fill="#CB0086" stroke="#263238" stroke-linecap="round" stroke-linejoin="round"/>
<path d="M945.079 547.635C948.24 562.373 951.529 577.283 954.862 591.808C982.819 585.508 1008.75 572.287 1030.26 553.359C1027.27 541.013 1024.2 528.239 1021.08 515.594C998.63 532.123 972.586 543.103 945.079 547.635Z" fill="#263238" stroke="#263238" stroke-linecap="round" stroke-linejoin="round"/>
<path d="M1310.99 634.444C1310.99 634.444 1324.83 604.539 1326.32 602.788C1327.82 601.036 1362.72 598.515 1353.54 610.691C1352.34 612.229 1330.51 615.219 1330.51 615.219L1325.3 627.48L1310.99 634.444Z" fill="white" stroke="#263238" stroke-linecap="round" stroke-linejoin="round"/>
<path d="M1338.46 925.375C1292.57 882.056 1124.59 874.11 1056.5 861.08C1040 857.919 1026.89 855.056 1016.38 852.536C996.387 759.617 947.086 580.829 938.414 484.493C936.278 460.697 927.007 349.835 882.876 360.601C797.434 381.492 647.91 424.128 642.655 532.255C638.383 619.363 674.568 711.983 690.545 796.699C698.492 838.993 705.925 874.495 713.487 904.143H712.846C712.846 904.143 785.002 1230.87 785.002 1284.66C785.002 1338.45 774.493 1367.33 771.887 1446.06C769.281 1524.8 803.629 1775.02 811.489 1780.14C819.35 1785.27 836.396 1785.4 844.299 1782.75C852.203 1780.1 853.484 1784.07 856.09 1774.89C858.696 1765.7 890.267 1586.23 899.367 1395.99C908.466 1205.75 922.778 1064.22 979.17 1024.87C1035.56 985.527 1263.91 990.696 1265.4 1019.62C1266.9 1048.54 1136.38 1321.61 1141.68 1326.87C1146.98 1332.12 1175.86 1339.98 1182.35 1337.38C1188.85 1334.77 1312.22 1135.31 1351.61 1067.08C1391 998.856 1384.38 968.652 1338.46 925.375Z" fill="#CB0086" stroke="#263238" stroke-linecap="round" stroke-linejoin="round"/>
<path d="M882.663 360.815C836.011 372.221 770.264 390.164 719.34 421.65C739.761 451.256 795.127 526.787 835.029 536.484C882.022 547.891 902.144 413.789 897.829 362.139C893.093 359.903 887.715 359.434 882.663 360.815Z" fill="#263238" stroke="#263238" stroke-linecap="round" stroke-linejoin="round"/>
<path d="M884.329 339.454C884.329 339.454 914.576 573.139 998.651 694.04L1022.15 710.872C1026.42 710.872 947.215 532.212 911.073 339.198L884.329 339.454Z" fill="#263238" stroke="#263238" stroke-linecap="round" stroke-linejoin="round"/>
<path d="M878.903 391.403C874.033 384.952 869.206 379.954 864.848 373.973C851.647 355.688 856.731 316.726 871.769 303.141C870.505 300.346 868.989 297.672 867.241 295.152C850.152 271.741 782.738 283.703 765.479 302.928C769.882 310.642 773.654 318.7 776.757 327.022C781.029 340.095 784.66 354.791 781.884 368.59C778.338 386.448 763.855 392.941 751.338 404.091C765.607 428.4 805.38 483.254 822.981 491.627C843.872 501.795 872.453 416.352 878.903 391.403Z" fill="white" stroke="#263238" stroke-linecap="round" stroke-linejoin="round"/>
<path d="M859.465 321.554C862.004 314.743 866.454 308.81 872.281 304.466C892.019 292.119 940.208 276.056 952.555 252.602C953.79 239.972 952.455 227.222 948.629 215.122C944.804 203.022 938.568 191.822 930.297 182.197C901.93 147.636 847.546 129.18 803.714 143.449C746.126 162.332 733.523 215.563 745.314 255.123C751.936 277.338 763.428 299.766 770.947 315.958C783.379 319.204 803.03 320.742 825.544 321.81C836.847 322.345 848.171 322.259 859.465 321.554Z" fill="#263238" stroke="#263238" stroke-linecap="round" stroke-linejoin="round"/>
<path d="M818.837 296.733C818.837 296.733 810.677 252.645 793.589 252.645C776.5 252.645 768.554 293.614 776.5 314.12C784.447 334.627 799.271 326.638 799.271 326.638C804.897 339.874 811.614 352.62 819.35 364.745C828.492 377.262 858.91 406.954 893.898 406.954C908.68 406.954 929.186 331.807 933.757 302.201C938.328 272.595 938.286 260.121 930.34 236.197C922.393 212.273 889.327 227.097 860.875 247.561C843.312 260.549 828.937 277.365 818.837 296.733Z" fill="white" stroke="#263238" stroke-linecap="round" stroke-linejoin="round"/>
<path d="M839.343 242.819C839.343 242.819 875.614 232.309 907.697 268.793C938.884 304.295 975.496 283.874 988.398 263.41C1008.73 231.199 1032.53 253.157 1032.53 213.897C1032.53 174.636 1006.21 171.645 979.213 178.993C952.213 186.341 966.952 139.733 930.126 134.82C893.3 129.907 883.517 151.908 873.691 159.384" fill="#263238"/>
<path d="M839.343 242.819C839.343 242.819 875.614 232.309 907.697 268.793C938.884 304.295 975.496 283.874 988.398 263.41C1008.73 231.199 1032.53 253.157 1032.53 213.897C1032.53 174.636 1006.21 171.645 979.213 178.993C952.213 186.341 966.952 139.733 930.126 134.82C893.3 129.907 883.517 151.908 873.691 159.384" stroke="#263238" stroke-linecap="round" stroke-linejoin="round"/>
<path d="M932.604 279.858C932.604 279.858 923.034 280.627 922.223 287.847C921.411 295.067 926.196 321.34 924.615 334.84C923.034 348.34 905.476 345.222 896.675 338.044" fill="white"/>
<path d="M932.604 279.858C932.604 279.858 923.034 280.627 922.223 287.847C921.411 295.067 926.196 321.34 924.615 334.84C923.034 348.34 905.476 345.222 896.675 338.044" stroke="#263238" stroke-linecap="round" stroke-linejoin="round"/>
<path d="M892.873 274.262C892.873 274.262 871.513 258.327 858.696 275.842L892.873 274.262Z" fill="white"/>
<path d="M892.873 274.262C892.873 274.262 871.513 258.327 858.696 275.842" stroke="#263238" stroke-linecap="round" stroke-linejoin="round"/>
<path d="M889.498 287.035L888.729 297.416C888.729 297.416 871.171 303.782 860.021 293.401" fill="white"/>
<path d="M889.498 287.035L888.729 297.416C888.729 297.416 871.171 303.782 860.021 293.401" stroke="#263238" stroke-linecap="round" stroke-linejoin="round"/>
<path d="M856.944 988.347C818.887 1005.16 777.733 1013.81 736.129 1013.77C757.19 1113.99 784.788 1251.59 784.788 1284.87C784.788 1338.66 774.279 1367.54 771.673 1446.28C769.067 1525.01 803.415 1775.23 811.276 1780.36C819.136 1785.48 836.182 1785.61 844.085 1782.96C851.989 1780.31 853.27 1784.29 855.876 1775.1C858.482 1765.92 890.053 1586.44 899.153 1396.21C908.253 1205.97 922.564 1064.43 978.956 1025.09C1035.35 985.741 1211.66 1026.84 1212.98 1055.68C1214.31 1084.51 1136.38 1321.62 1141.68 1326.87C1146.98 1332.12 1175.86 1339.99 1182.35 1337.38C1188.85 1334.77 1312.22 1135.31 1351.61 1067.08C1391 998.856 1384.38 968.823 1338.46 925.376C1292.53 881.928 1124.59 874.11 1056.5 861.08C1040 857.919 1026.89 855.057 1016.38 852.536C1004.97 867.617 957.98 943.746 856.944 988.347Z" fill="#263238"/>
<path d="M1212.98 1055.68C1212.98 1055.68 1284.5 1099.12 1316.45 1102.03" stroke="#6B6B6B" stroke-linecap="round" stroke-linejoin="round"/>
<path d="M1168.42 1032.35C1168.42 1032.35 1226.48 1093.31 1270.02 1119.46" stroke="#6B6B6B" stroke-linecap="round" stroke-linejoin="round"/>
<path d="M1177.14 1078.79C1177.14 1078.79 1220.67 1148.46 1258.31 1165.89" stroke="#6B6B6B" stroke-linecap="round" stroke-linejoin="round"/>
<path d="M991.388 1020.77C991.388 1020.77 1020.4 988.817 1136.64 968.524" stroke="#6B6B6B" stroke-linecap="round" stroke-linejoin="round"/>
<path d="M1087.17 994.627C1087.17 994.627 1162.62 986.083 1203.24 980.102" stroke="#6B6B6B" stroke-linecap="round" stroke-linejoin="round"/>
<path d="M909.962 1342.93C909.962 1342.93 869.334 1488.19 840.326 1575.12" stroke="#6B6B6B" stroke-linecap="round" stroke-linejoin="round"/>
<path d="M889.797 1488.06C875.452 1553.89 847.832 1616.1 808.627 1670.9" stroke="#6B6B6B" stroke-linecap="round" stroke-linejoin="round"/>
<path d="M856.944 988.347C818.887 1005.16 777.733 1013.81 736.129 1013.77C757.19 1113.99 784.788 1251.59 784.788 1284.87C784.788 1338.66 774.279 1367.54 771.673 1446.28C769.067 1525.01 803.415 1775.23 811.276 1780.36C819.136 1785.48 836.182 1785.61 844.085 1782.96C851.989 1780.31 853.27 1784.29 855.876 1775.1C858.482 1765.92 890.053 1586.44 899.153 1396.21C908.253 1205.97 922.564 1064.43 978.956 1025.09C1035.35 985.741 1211.66 1026.84 1212.98 1055.68C1214.31 1084.51 1136.38 1321.62 1141.68 1326.87C1146.98 1332.12 1175.86 1339.99 1182.35 1337.38C1188.85 1334.77 1312.22 1135.31 1351.61 1067.08C1391 998.856 1384.38 968.823 1338.46 925.376C1292.53 881.928 1124.59 874.11 1056.5 861.08C1040 857.919 1026.89 855.057 1016.38 852.536C1004.97 867.617 957.98 943.746 856.944 988.347Z" stroke="#263238" stroke-linecap="round" stroke-linejoin="round"/>
<path d="M723.612 1107.32L731.515 1125.48C732.361 1127.4 733.733 1129.04 735.471 1130.21C737.21 1131.38 739.245 1132.04 741.341 1132.1L756.294 1132.49C758.549 1132.55 760.771 1131.93 762.664 1130.7C764.557 1129.47 766.03 1127.7 766.888 1125.61L775.433 1104.5L723.612 1107.32Z" fill="white" stroke="#263238" stroke-linecap="round" stroke-linejoin="round"/>
<path d="M1053.63 771.622C1057.01 763.676 1043.17 738.94 1039.71 732.361C1009.8 675.884 925.299 674.559 888.089 723.817C874.546 741.76 867.283 764.872 849.639 778.628C811.788 808.063 757.746 772.177 717.204 767.606C628.899 757.652 568.363 842.625 570.713 923.496C572.891 998.813 620.739 1071.87 689.008 1103.82C692.425 1105.45 695.928 1106.94 699.432 1108.31C779.406 1139.88 856.005 1101.52 900.221 1032.52C913.465 1011.8 924.871 990.013 938.286 969.421C945.378 958.57 954.392 948.36 966.396 943.532C990.235 933.877 1020.7 941.183 1046.24 933.963C1063.93 928.964 1090.03 919.907 1098.45 901.58C1107.72 881.287 1095.84 880.689 1078.84 881.715C1061.84 882.74 1042.44 866.848 1040.6 836.729C1038.77 806.611 1053.63 771.622 1053.63 771.622Z" fill="#757575" stroke="#263238" stroke-linecap="round" stroke-linejoin="round"/>
<path d="M1041.33 776.193C1044.7 768.29 1030.86 743.511 1027.44 736.975C997.754 680.498 913.037 679.173 875.785 728.431C862.285 746.374 855.022 769.486 837.335 783.242C799.484 812.634 745.485 776.791 704.9 772.22C616.595 762.266 556.102 847.238 558.451 928.11C560.63 1003.43 608.478 1076.48 676.704 1108.44C680.164 1110.06 683.625 1111.55 687.17 1112.92C767.145 1144.49 843.744 1106.09 887.96 1037.09C901.161 1016.41 912.61 994.627 926.025 974.035C933.074 963.184 942.131 952.973 954.135 948.103C977.931 938.491 1008.43 945.796 1033.94 938.576C1051.67 933.578 1077.77 924.521 1086.14 906.194C1095.46 885.901 1083.58 885.303 1066.53 886.328C1049.49 887.354 1030.14 871.461 1028.34 841.343C1026.55 811.224 1041.33 776.236 1041.33 776.193Z" fill="#757575"/>
<path opacity="0.19" d="M1078.71 882.014C1061.62 883.082 1042.31 867.147 1040.47 837.028C1038.64 806.91 1053.63 771.836 1053.63 771.836C1057.01 763.89 1043.17 739.154 1039.71 732.575C1015.65 686.778 955.417 677.251 913.636 701.602L752.833 1119.71C812.386 1121.25 866.002 1086.18 900.093 1032.82C913.337 1012.1 924.743 990.312 938.158 969.72C945.207 958.869 954.264 948.659 966.268 943.831C990.107 934.176 1020.57 941.482 1046.11 934.262C1063.8 929.263 1089.9 920.206 1098.32 901.879C1107.59 881.373 1095.71 880.775 1078.71 882.014Z" fill="white"/>
<path opacity="0.19" d="M765.564 729.841C773.246 725.399 781.515 722.062 790.129 719.93C761.164 692.844 714.427 690.025 680.122 709.933L519.276 1128.05C559.947 1129.07 597.841 1113.05 628.643 1085.79L765.564 729.841Z" fill="white"/>
<path d="M1041.33 776.193C1044.7 768.29 1030.86 743.511 1027.44 736.975C997.754 680.498 913.037 679.173 875.785 728.431C862.285 746.374 855.022 769.486 837.335 783.242C799.484 812.634 745.485 776.791 704.9 772.22C616.595 762.266 556.102 847.238 558.451 928.11C560.63 1003.43 608.478 1076.48 676.704 1108.44C680.164 1110.06 683.625 1111.55 687.17 1112.92C767.145 1144.49 843.744 1106.09 887.96 1037.09C901.161 1016.41 912.61 994.627 926.025 974.035C933.074 963.184 942.131 952.973 954.135 948.103C977.931 938.491 1008.43 945.796 1033.94 938.576C1051.67 933.578 1077.77 924.521 1086.14 906.194C1095.46 885.901 1083.58 885.303 1066.53 886.328C1049.49 887.354 1030.14 871.461 1028.34 841.343C1026.55 811.224 1041.33 776.236 1041.33 776.193Z" stroke="#263238" stroke-linecap="round" stroke-linejoin="round"/>
<path d="M974.001 798.664L993.439 845.188L1468.93 601.335L1452.31 565.535L974.001 798.664Z" fill="#263238" stroke="#263238" stroke-linecap="round" stroke-linejoin="round"/>
<path d="M1033.85 810.797C1033.85 810.797 942.729 953.23 911.372 967.456C880.014 981.682 858.739 935.287 877.921 904.357C897.103 873.427 1033.85 810.797 1033.85 810.797Z" fill="white" stroke="#263238" stroke-linecap="round" stroke-linejoin="round"/>
<path d="M1014.31 845.842L983.454 782.274C981.136 777.498 975.385 775.505 970.609 777.823L945.166 790.172C940.39 792.49 938.398 798.241 940.716 803.017L971.57 866.586C973.888 871.362 979.639 873.354 984.414 871.036L1009.86 858.687C1014.63 856.369 1016.63 850.618 1014.31 845.842Z" fill="white" stroke="#263238" stroke-linecap="round" stroke-linejoin="round"/>
<path d="M906.064 907.924L877.132 843.458C874.958 838.615 869.27 836.451 864.427 838.624L838.624 850.204C833.781 852.378 831.617 858.066 833.791 862.909L862.722 927.376C864.896 932.219 870.584 934.383 875.428 932.209L901.23 920.63C906.073 918.456 908.237 912.768 906.064 907.924Z" fill="white" stroke="#263238" stroke-linecap="round" stroke-linejoin="round"/>
<path d="M759.113 987.492L714.811 894.018C714.478 893.322 714.289 892.566 714.255 891.795C714.222 891.025 714.344 890.255 714.616 889.533C714.887 888.811 715.302 888.151 715.834 887.593C716.367 887.035 717.007 886.59 717.716 886.286C718.4 885.952 719.144 885.756 719.903 885.711C720.663 885.666 721.424 885.771 722.143 886.021C722.862 886.271 723.524 886.661 724.091 887.169C724.659 887.676 725.12 888.291 725.449 888.977L769.751 982.451C770.397 983.835 770.473 985.418 769.961 986.857C769.45 988.296 768.392 989.476 767.017 990.141C766.327 990.504 765.572 990.723 764.795 990.785C764.019 990.848 763.238 990.753 762.499 990.505C761.76 990.258 761.08 989.863 760.498 989.345C759.916 988.827 759.445 988.197 759.113 987.492Z" fill="white" stroke="#263238" stroke-linecap="round" stroke-linejoin="round"/>
<path d="M715.922 897.735L577.633 1010.95C575.544 1012.65 574.099 1015.01 573.539 1017.64C572.979 1020.28 573.339 1023.03 574.558 1025.43L583.7 1043.63C585.038 1046.3 587.336 1048.36 590.133 1049.41C592.93 1050.45 596.019 1050.4 598.78 1049.27L758.173 983.733L752.192 973.138L648.636 991.764L722.33 912.687L715.922 897.735Z" fill="white" stroke="#263238" stroke-linecap="round" stroke-linejoin="round"/>
<path d="M873.777 940.543C872.226 939.221 870.216 938.565 868.184 938.717C866.152 938.869 864.263 939.817 862.926 941.355C846.778 957.117 827.591 969.429 806.534 977.54C792.885 983.105 778.902 987.813 764.667 991.638C761.078 992.535 757.49 993.432 753.901 994.073C745.357 995.611 731.43 998.986 732.541 1010.14C732.768 1012.93 734.006 1015.55 736.023 1017.5C738.04 1019.44 740.698 1020.59 743.499 1020.72C746.3 1020.85 749.053 1019.96 751.243 1018.21C753.432 1016.46 754.909 1013.97 755.397 1011.2C775.145 1007.22 794.439 1001.26 812.985 993.389C836.564 984.414 857.709 970.03 874.717 951.394C875.369 950.621 875.862 949.726 876.168 948.762C876.474 947.797 876.586 946.782 876.499 945.774C876.412 944.766 876.126 943.785 875.659 942.887C875.192 941.99 874.552 941.193 873.777 940.543Z" fill="white" stroke="#263238" stroke-linecap="round" stroke-linejoin="round"/>
<path d="M710.582 1048.63C710.379 1046.35 709.504 1044.18 708.068 1042.4C706.632 1040.61 704.699 1039.29 702.515 1038.61C700.33 1037.92 697.991 1037.9 695.794 1038.55C693.597 1039.19 691.64 1040.47 690.171 1042.23C688.702 1043.98 687.786 1046.13 687.54 1048.41C687.294 1050.69 687.728 1052.99 688.788 1055.01C689.847 1057.04 691.485 1058.71 693.494 1059.81C695.502 1060.91 697.792 1061.39 700.072 1061.19C701.587 1061.05 703.061 1060.62 704.409 1059.92C705.757 1059.21 706.953 1058.25 707.929 1057.09C708.905 1055.92 709.642 1054.57 710.097 1053.12C710.552 1051.67 710.717 1050.14 710.582 1048.63Z" fill="white" stroke="#263238" stroke-linecap="round" stroke-linejoin="round"/>
<path d="M797.135 1060.8C796.931 1058.52 796.054 1056.35 794.616 1054.56C793.177 1052.78 791.242 1051.46 789.055 1050.78C786.868 1050.1 784.528 1050.08 782.33 1050.73C780.132 1051.37 778.176 1052.66 776.709 1054.42C775.242 1056.18 774.331 1058.34 774.09 1060.61C773.849 1062.89 774.29 1065.19 775.356 1067.22C776.422 1069.25 778.066 1070.91 780.08 1072.01C782.094 1073.1 784.387 1073.57 786.668 1073.36C789.72 1073.08 792.535 1071.6 794.497 1069.24C796.459 1066.89 797.408 1063.85 797.135 1060.8Z" fill="white" stroke="#263238" stroke-linecap="round" stroke-linejoin="round"/>
<path d="M1144.72 715.486L1139.67 717.921L1158.26 760.002L1163.26 757.439L1144.72 715.486Z" fill="white" stroke="#263238" stroke-linecap="round" stroke-linejoin="round"/>
<path d="M1178.68 698.911L1173.68 701.346L1191.92 742.657L1196.92 740.094L1178.68 698.911Z" fill="white" stroke="#263238" stroke-linecap="round" stroke-linejoin="round"/>
<path d="M1100.63 736.975L1095.59 739.41L1114.68 782.473L1119.64 779.91L1100.63 736.975Z" fill="white" stroke="#263238" stroke-linecap="round" stroke-linejoin="round"/>
<path d="M1212.68 682.334L1207.69 684.77L1225.59 725.355L1230.54 722.791L1212.68 682.334Z" fill="white" stroke="#263238" stroke-linecap="round" stroke-linejoin="round"/>
<path d="M1059.06 757.225L1054.02 759.66L1073.54 803.663L1078.54 801.099L1059.06 757.225Z" fill="white" stroke="#263238" stroke-linecap="round" stroke-linejoin="round"/>
<path d="M1027.44 827.373L1032.44 824.81L1012.45 779.953L1007.41 782.388L1027.44 827.373Z" fill="white" stroke="#263238" stroke-linecap="round" stroke-linejoin="round"/>
<path d="M1246.69 665.759L1241.65 668.194L1259.21 708.01L1264.21 705.447L1246.69 665.759Z" fill="white" stroke="#263238" stroke-linecap="round" stroke-linejoin="round"/>
<path d="M1416.72 582.879L1411.68 585.315L1429.07 621.841L1434.02 619.278L1416.72 582.879Z" fill="white" stroke="#263238" stroke-linecap="round" stroke-linejoin="round"/>
<path d="M1348.71 616.031L1343.67 618.466L1361.78 656.531L1366.74 653.968L1348.71 616.031Z" fill="white" stroke="#263238" stroke-linecap="round" stroke-linejoin="round"/>
<path d="M1382.71 599.456L1377.67 601.891L1395.4 639.186L1400.4 636.623L1382.71 599.456Z" fill="white" stroke="#263238" stroke-linecap="round" stroke-linejoin="round"/>
<path d="M1280.7 649.183L1275.66 651.618L1294.5 691.178L1299.45 688.615L1280.7 649.183Z" fill="white" stroke="#263238" stroke-linecap="round" stroke-linejoin="round"/>
<path d="M1314.75 632.607L1309.7 635.085L1328.12 673.833L1333.12 671.27L1314.75 632.607Z" fill="white" stroke="#263238" stroke-linecap="round" stroke-linejoin="round"/>
<path d="M1455.72 567.073L732.754 926.529" stroke="white" stroke-width="0.5" stroke-linecap="round" stroke-linejoin="round"/>
<path d="M1459.78 573.139L736.812 932.595" stroke="white" stroke-width="0.5" stroke-linecap="round" stroke-linejoin="round"/>
<path d="M1463.8 579.249L740.871 938.705" stroke="white" stroke-width="0.5" stroke-linecap="round" stroke-linejoin="round"/>
<path d="M1467.86 585.315L744.93 944.771" stroke="white" stroke-width="0.5" stroke-linecap="round" stroke-linejoin="round"/>
<path d="M1471.92 591.381L748.988 950.838" stroke="white" stroke-width="0.5" stroke-linecap="round" stroke-linejoin="round"/>
<path d="M1475.98 597.49L753.047 956.946" stroke="white" stroke-width="0.5" stroke-linecap="round" stroke-linejoin="round"/>
<path d="M1452.52 565.535L1464.31 521.446C1464.31 521.446 1501.61 529.692 1546.46 488.85C1567.68 510.844 1581.36 539.016 1585.51 569.294C1585.51 569.294 1521.99 583.648 1509.47 615.946L1469.14 601.335L1452.52 565.535Z" fill="#263238" stroke="#263238" stroke-linecap="round" stroke-linejoin="round"/>
<path d="M1494.26 546.652C1494.12 545.357 1493.59 544.134 1492.75 543.138C1491.91 542.142 1490.79 541.418 1489.54 541.058C1488.29 540.698 1486.96 540.718 1485.72 541.115C1484.47 541.512 1483.38 542.269 1482.57 543.289C1481.76 544.31 1481.27 545.548 1481.16 546.847C1481.06 548.145 1481.34 549.446 1481.97 550.584C1482.61 551.722 1483.57 552.647 1484.73 553.239C1485.89 553.832 1487.2 554.067 1488.49 553.915C1490.22 553.711 1491.79 552.833 1492.87 551.472C1493.95 550.112 1494.45 548.379 1494.26 546.652Z" fill="white" stroke="#263238" stroke-linecap="round" stroke-linejoin="round"/>
<path d="M1515.53 536.314C1515.39 535.02 1514.87 533.798 1514.03 532.802C1513.19 531.806 1512.08 531.081 1510.83 530.719C1509.58 530.356 1508.25 530.373 1507.01 530.766C1505.77 531.159 1504.67 531.911 1503.86 532.928C1503.05 533.944 1502.55 535.178 1502.44 536.475C1502.33 537.772 1502.61 539.072 1503.23 540.212C1503.86 541.352 1504.81 542.28 1505.97 542.879C1507.12 543.478 1508.43 543.72 1509.72 543.576C1511.46 543.383 1513.04 542.509 1514.13 541.147C1515.22 539.786 1515.73 538.047 1515.53 536.314Z" fill="white" stroke="#263238" stroke-linecap="round" stroke-linejoin="round"/>
<path d="M1536.81 525.932C1536.67 524.639 1536.14 523.417 1535.3 522.421C1534.47 521.425 1533.35 520.7 1532.1 520.337C1530.85 519.975 1529.52 519.991 1528.28 520.385C1527.04 520.778 1525.95 521.53 1525.13 522.546C1524.32 523.563 1523.83 524.797 1523.72 526.094C1523.6 527.39 1523.88 528.691 1524.51 529.831C1525.14 530.971 1526.09 531.899 1527.24 532.498C1528.4 533.096 1529.71 533.339 1531 533.195C1532.73 533.002 1534.32 532.128 1535.41 530.766C1536.5 529.404 1537 527.666 1536.81 525.932Z" fill="white" stroke="#263238" stroke-linecap="round" stroke-linejoin="round"/>
<path d="M1511.13 582.111C1510.99 580.816 1510.46 579.593 1509.62 578.597C1508.78 577.601 1507.67 576.877 1506.41 576.517C1505.16 576.157 1503.83 576.177 1502.59 576.574C1501.35 576.971 1500.25 577.728 1499.44 578.748C1498.63 579.769 1498.14 581.007 1498.04 582.306C1497.93 583.604 1498.21 584.905 1498.85 586.043C1499.48 587.181 1500.44 588.106 1501.6 588.698C1502.76 589.291 1504.07 589.526 1505.37 589.374C1507.09 589.17 1508.67 588.292 1509.75 586.931C1510.83 585.571 1511.33 583.838 1511.13 582.111Z" fill="white" stroke="#263238" stroke-linecap="round" stroke-linejoin="round"/>
<path d="M1532.41 571.772C1532.27 570.478 1531.74 569.256 1530.91 568.261C1530.07 567.265 1528.95 566.54 1527.7 566.177C1526.45 565.815 1525.12 565.831 1523.88 566.224C1522.64 566.618 1521.55 567.37 1520.73 568.386C1519.92 569.402 1519.43 570.637 1519.32 571.934C1519.2 573.23 1519.48 574.531 1520.11 575.671C1520.74 576.811 1521.69 577.739 1522.84 578.337C1524 578.936 1525.31 579.179 1526.6 579.035C1528.33 578.841 1529.92 577.968 1531.01 576.606C1532.1 575.244 1532.6 573.505 1532.41 571.772Z" fill="white" stroke="#263238" stroke-linecap="round" stroke-linejoin="round"/>
<path d="M1553.68 561.605C1553.54 560.311 1553.02 559.089 1552.18 558.093C1551.34 557.097 1550.23 556.372 1548.98 556.01C1547.73 555.647 1546.4 555.664 1545.16 556.057C1543.92 556.45 1542.82 557.202 1542.01 558.219C1541.2 559.235 1540.7 560.469 1540.59 561.766C1540.48 563.063 1540.76 564.363 1541.38 565.503C1542.01 566.643 1542.96 567.571 1544.12 568.17C1545.27 568.769 1546.58 569.011 1547.87 568.867C1549.61 568.674 1551.19 567.8 1552.28 566.438C1553.37 565.077 1553.88 563.338 1553.68 561.605Z" fill="white" stroke="#263238" stroke-linecap="round" stroke-linejoin="round"/>
<path d="M1355.46 659.863C1355.46 659.863 1330.21 621.414 1330.59 617.142C1332.35 599.37 1360.8 640.724 1367.33 647.303C1373.87 653.882 1372.59 661.743 1366.01 669.604C1359.43 677.464 1316.24 680.07 1316.24 680.07L1355.46 659.863Z" fill="white" stroke="#263238" stroke-linecap="round" stroke-linejoin="round"/>
<path d="M1371.65 648.841C1371.65 648.841 1349.78 614.963 1356.53 608.427C1366.14 599.157 1367.85 613.724 1374.64 626.199C1381.43 638.674 1388.23 649.226 1384.08 652.985C1376.48 659.863 1371.65 648.841 1371.65 648.841Z" fill="white" stroke="#263238" stroke-linecap="round" stroke-linejoin="round"/>
<path d="M1385.23 640.169C1385.23 640.169 1365.46 602.574 1370.11 599.755C1374.77 596.935 1381.43 605.052 1388.23 617.484C1395.02 629.916 1401.85 640.511 1397.67 644.313C1390.06 651.319 1385.23 640.169 1385.23 640.169Z" fill="white" stroke="#263238" stroke-linecap="round" stroke-linejoin="round"/>
<path d="M1402.58 645.423C1402.58 645.423 1384.81 607.957 1387.5 605.052C1393.99 597.96 1398.82 610.307 1405.61 622.781C1412.41 635.256 1419.2 645.808 1415.05 649.567C1407.41 656.531 1402.58 645.423 1402.58 645.423Z" fill="white" stroke="#263238" stroke-linecap="round" stroke-linejoin="round"/>
<path d="M699.175 435.534C699.175 435.534 661.452 458.262 624.712 485.817C587.972 513.372 459.381 828.27 465.96 840.104C472.539 851.938 807.089 895.214 829.389 899.145C851.69 903.075 863.566 908.33 877.921 904.357C892.275 900.384 909.449 879.45 909.449 879.45C909.449 879.45 926.537 876.844 929.101 867.659C931.664 858.474 923.846 858.474 914.661 854.501C905.476 850.528 898.939 837.413 892.36 830.919C885.781 824.425 854.338 832.201 842.505 837.455C830.671 842.71 811.019 851.895 800.51 853.219C790 854.544 729.678 846.64 677.174 817.761C624.669 788.881 608.82 779.739 601.087 773.16C593.354 766.581 719.168 568.483 719.168 568.483" fill="#CB0086"/>
<path d="M699.175 435.534C699.175 435.534 661.452 458.262 624.712 485.817C587.972 513.372 459.381 828.27 465.96 840.104C472.539 851.938 807.089 895.214 829.389 899.145C851.69 903.075 863.566 908.33 877.921 904.357C892.275 900.384 909.449 879.45 909.449 879.45C909.449 879.45 926.537 876.844 929.101 867.659C931.664 858.474 923.846 858.474 914.661 854.501C905.476 850.528 898.939 837.413 892.36 830.919C885.781 824.425 854.338 832.201 842.505 837.455C830.671 842.71 811.019 851.895 800.51 853.219C790 854.544 729.678 846.64 677.174 817.761C624.669 788.881 608.82 779.739 601.087 773.16C593.354 766.581 719.168 568.483 719.168 568.483" stroke="#263238" stroke-linecap="round" stroke-linejoin="round"/>
<path d="M929.101 867.659C931.749 858.474 923.846 858.474 914.661 854.501C905.476 850.528 898.94 837.412 892.361 830.919C885.781 824.425 854.339 832.201 842.505 837.455C830.671 842.71 811.019 851.895 800.51 853.219C790 854.544 729.678 846.64 677.174 817.761C624.669 788.881 608.82 779.739 601.087 773.16C598.524 771.024 610.23 748.51 627.104 719.16C590.428 713.904 554.857 702.691 521.797 685.966C489.158 763.334 462.884 834.593 465.96 840.104C472.496 851.895 807.089 895.214 829.389 899.145C851.69 903.075 863.566 908.33 877.921 904.357C892.275 900.384 909.449 879.45 909.449 879.45C909.449 879.45 926.495 876.844 929.101 867.659Z" fill="white" stroke="#263238" stroke-linecap="round" stroke-linejoin="round"/>
<path d="M601.087 773.16C601.087 773.16 557.64 760.13 527.991 793.709" stroke="#263238" stroke-linecap="round" stroke-linejoin="round"/>
<path d="M515.389 701.26C550.676 716.982 600.447 724.159 622.747 726.893C629.967 714.077 638.383 699.808 647.226 685.069C608.492 680.871 570.597 670.936 534.784 655.591C528.162 670.971 521.626 686.308 515.389 701.26Z" fill="#263238" stroke="#263238" stroke-linecap="round" stroke-linejoin="round"/>
</svg>
